<svg xmlns="http://www.w3.org/2000/svg" xmlns:cc="http://web.resource.org/cc/" xmlns:svg="http://www.w3.org/2000/svg" xmlns:xlink="http://www.w3.org/1999/xlink" id="svg14611" width="21.173" height="21.268" version="1.0"><defs id="defs14613"><radialGradient id="radialGradient7589" cx="130.068" cy="36.969" r="9.128" fx="130.068" fy="36.969" gradientTransform="matrix(-1.1424401,-1.3126359e-6,1.2808603e-6,-1.1147846,731.29438,681.68866)" gradientUnits="userSpaceOnUse" xlink:href="#linearGradient8263"/><linearGradient id="linearGradient8263"><stop id="stop8265" offset="0" stop-color="#a4faf7" stop-opacity="1"/><stop id="stop8267" offset="1" stop-color="#0a827d" stop-opacity="1"/></linearGradient><linearGradient id="linearGradient7587" x1="120.94" x2="138.931" y1="37.062" y2="37.062" gradientTransform="matrix(1.1424401,0,0,1.1424401,434.10437,598.24113)" gradientUnits="userSpaceOnUse" xlink:href="#linearGradient8263"/></defs><metadata id="metadata14616"/><g id="layer1" transform="translate(-572.27078,-630.29984)"><path id="path7583" fill="#000" fill-opacity="1" fill-rule="evenodd" stroke="#000" stroke-dashoffset="0" stroke-linecap="butt" stroke-linejoin="bevel" stroke-miterlimit="4" stroke-opacity="1" stroke-width=".571" d="M 592.91399,647.83012 L 589.3335,651.28177 L 583.09501,644.54506 L 576.68497,651.23775 L 572.93456,647.44917 L 579.77019,641.31369 L 573.2794,634.90777 L 576.96293,631.35721 L 583.30646,637.89406 L 589.6094,631.50219 L 593.15789,635.28667 L 586.62923,641.22638 L 592.91399,647.83012 z"/><path id="path7585" fill="url(#linearGradient7587)" fill-opacity="1" fill-rule="evenodd" stroke="url(#radialGradient7589)" stroke-dashoffset="0" stroke-linecap="butt" stroke-linejoin="bevel" stroke-miterlimit="4" stroke-opacity="1" stroke-width=".571" d="M 592.53945,646.84297 L 589.02971,650.36656 L 582.65582,643.7578 L 576.38291,650.57917 L 572.55639,646.86747 L 579.26612,640.59456 L 572.64671,634.32165 L 576.25742,630.69709 L 582.73229,637.10388 L 588.90424,630.58545 L 592.5288,634.29715 L 586.12198,640.3681 L 592.53945,646.84297 z"/></g></svg>