<svg xmlns="http://www.w3.org/2000/svg" xmlns:cc="http://web.resource.org/cc/" xmlns:svg="http://www.w3.org/2000/svg" xmlns:xlink="http://www.w3.org/1999/xlink" id="svg13400" width="22.495" height="19.545" version="1.0"><defs id="defs13402"><linearGradient id="linearGradient21158"><stop id="stop21160" offset="0" stop-color="#29ff1b" stop-opacity="1"/><stop id="stop21162" offset=".5" stop-color="#22970b" stop-opacity="1"/><stop id="stop21164" offset="1" stop-color="#09ff34" stop-opacity="1"/></linearGradient><linearGradient id="linearGradient23184" x1="31.82" x2="44.636" y1="57.728" y2="63.915" gradientTransform="translate(-22.956941,-0.1042739)" gradientUnits="userSpaceOnUse" xlink:href="#linearGradient21158"/><linearGradient id="linearGradient23182" x1="31.82" x2="44.636" y1="57.728" y2="63.915" gradientTransform="translate(-22.73597,0.7094512)" gradientUnits="userSpaceOnUse" xlink:href="#linearGradient12165"/><linearGradient id="linearGradient8263"><stop id="stop8265" offset="0" stop-color="#a4faf7" stop-opacity="1"/><stop id="stop8267" offset="1" stop-color="#0a827d" stop-opacity="1"/></linearGradient><linearGradient id="linearGradient23180" x1="26.693" x2="28.549" y1="64.33" y2="65.214" gradientTransform="translate(-22.956941,-0.1042739)" gradientUnits="userSpaceOnUse" xlink:href="#linearGradient8263"/><linearGradient id="linearGradient12165"><stop id="stop12167" offset="0" stop-color="#000" stop-opacity="1"/><stop id="stop12169" offset="1" stop-color="#000" stop-opacity=".522"/></linearGradient><linearGradient id="linearGradient23178" x1="26.693" x2="28.549" y1="64.33" y2="65.214" gradientTransform="translate(-22.506378,0.4371781)" gradientUnits="userSpaceOnUse" xlink:href="#linearGradient12165"/></defs><metadata id="metadata13405"/><g id="layer1" transform="translate(-191.60972,-845.44685)"><g id="g23172" transform="translate(191.23214,792.84432)"><path id="path20173" fill="url(#linearGradient23178)" fill-opacity="1" fill-rule="evenodd" stroke="none" stroke-linecap="butt" stroke-linejoin="miter" stroke-opacity="1" stroke-width="1" d="M 0.828146,72.147474 L 9.578592,53.143979 L 11.257971,53.143979 L 3.037854,72.147474 L 0.828146,72.147474 z"/><path id="path20175" fill="url(#linearGradient23180)" fill-opacity="1" fill-rule="evenodd" stroke="none" stroke-linecap="butt" stroke-linejoin="miter" stroke-opacity="1" stroke-width="1" d="M 0.377583,71.606022 L 9.128029,52.602527 L 10.807408,52.602527 L 2.587291,71.606022 L 0.377583,71.606022 z"/><path id="path20177" fill="url(#linearGradient23182)" fill-opacity="1" fill-rule="evenodd" stroke="none" stroke-dasharray="none" stroke-dashoffset="0" stroke-linecap="butt" stroke-linejoin="bevel" stroke-miterlimit="4" stroke-opacity="1" stroke-width="0" d="M 10.93999,53.50464 C 10.93999,53.50464 16.154903,54.18965 16.86201,58.454388 C 17.571625,62.734253 22.872417,62.255087 22.872417,62.255087 L 19.778825,70.033261 C 19.778825,70.033261 11.440141,70.728896 11.116767,67.028057 C 10.71902,62.476057 7.22768,61.813145 7.22768,61.813145 L 10.93999,53.50464 z"/><path id="path20179" fill="url(#linearGradient23184)" fill-opacity="1" fill-rule="evenodd" stroke="none" stroke-dasharray="none" stroke-dashoffset="0" stroke-linecap="butt" stroke-linejoin="bevel" stroke-miterlimit="4" stroke-opacity="1" stroke-width="0" d="M 10.719019,52.690915 C 10.719019,52.690915 15.933932,53.375925 16.641039,57.640663 C 17.350654,61.920528 22.651446,61.441362 22.651446,61.441362 L 19.557854,69.219536 C 19.557854,69.219536 11.21917,69.915171 10.895796,66.214332 C 10.498049,61.662332 7.006709,60.99942 7.006709,60.99942 L 10.719019,52.690915 z"/></g></g></svg>