<svg xmlns="http://www.w3.org/2000/svg" xmlns:cc="http://web.resource.org/cc/" xmlns:svg="http://www.w3.org/2000/svg" xmlns:xlink="http://www.w3.org/1999/xlink" id="svg13501" width="22.495" height="19.545" version="1.0"><defs id="defs13503"><linearGradient id="linearGradient22038"><stop id="stop22040" offset="0" stop-color="#292929" stop-opacity="1"/><stop id="stop22042" offset=".5" stop-color="#000" stop-opacity="1"/><stop id="stop22044" offset="1" stop-color="#474747" stop-opacity="1"/></linearGradient><linearGradient id="linearGradient21058" x1="31.82" x2="44.636" y1="57.728" y2="63.915" gradientTransform="translate(46.543059,-0.376748)" gradientUnits="userSpaceOnUse" xlink:href="#linearGradient22038"/><linearGradient id="linearGradient21061" x1="31.82" x2="44.636" y1="57.728" y2="63.915" gradientTransform="translate(46.76403,0.4369771)" gradientUnits="userSpaceOnUse" xlink:href="#linearGradient12165"/><linearGradient id="linearGradient8263"><stop id="stop8265" offset="0" stop-color="#a4faf7" stop-opacity="1"/><stop id="stop8267" offset="1" stop-color="#0a827d" stop-opacity="1"/></linearGradient><linearGradient id="linearGradient21064" x1="26.693" x2="28.549" y1="64.33" y2="65.214" gradientTransform="translate(46.543059,-0.376748)" gradientUnits="userSpaceOnUse" xlink:href="#linearGradient8263"/><linearGradient id="linearGradient12165"><stop id="stop12167" offset="0" stop-color="#000" stop-opacity="1"/><stop id="stop12169" offset="1" stop-color="#000" stop-opacity=".522"/></linearGradient><linearGradient id="linearGradient21067" x1="26.693" x2="28.549" y1="64.33" y2="65.214" gradientTransform="translate(46.993622,0.164704)" gradientUnits="userSpaceOnUse" xlink:href="#linearGradient12165"/></defs><metadata id="metadata13506"/><g id="layer1" transform="translate(-643.03829,-976.87542)"><g id="g13495" transform="translate(573.16071,924.54537)"><path id="path23132" fill="url(#linearGradient21067)" fill-opacity="1" fill-rule="evenodd" stroke="none" stroke-linecap="butt" stroke-linejoin="miter" stroke-opacity="1" stroke-width="1" d="M 70.328146,71.875 L 79.078592,52.871505 L 80.757971,52.871505 L 72.537854,71.875 L 70.328146,71.875 z"/><path id="path23134" fill="url(#linearGradient21064)" fill-opacity="1" fill-rule="evenodd" stroke="none" stroke-linecap="butt" stroke-linejoin="miter" stroke-opacity="1" stroke-width="1" d="M 69.877583,71.333548 L 78.628029,52.330053 L 80.307408,52.330053 L 72.087291,71.333548 L 69.877583,71.333548 z"/><path id="path23136" fill="url(#linearGradient21061)" fill-opacity="1" fill-rule="evenodd" stroke="none" stroke-dasharray="none" stroke-dashoffset="0" stroke-linecap="butt" stroke-linejoin="bevel" stroke-miterlimit="4" stroke-opacity="1" stroke-width="0" d="M 80.43999,53.232166 C 80.43999,53.232166 85.654903,53.917176 86.36201,58.181914 C 87.071625,62.461779 92.372417,61.982613 92.372417,61.982613 L 89.278825,69.760787 C 89.278825,69.760787 80.940141,70.456422 80.616767,66.755583 C 80.21902,62.203583 76.72768,61.540671 76.72768,61.540671 L 80.43999,53.232166 z"/><path id="path23138" fill="url(#linearGradient21058)" fill-opacity="1" fill-rule="evenodd" stroke="none" stroke-dasharray="none" stroke-dashoffset="0" stroke-linecap="butt" stroke-linejoin="bevel" stroke-miterlimit="4" stroke-opacity="1" stroke-width="0" d="M 80.219019,52.418441 C 80.219019,52.418441 85.433932,53.103451 86.141039,57.368189 C 86.850654,61.648054 92.151446,61.168888 92.151446,61.168888 L 89.057854,68.947062 C 89.057854,68.947062 80.71917,69.642697 80.395796,65.941858 C 79.998049,61.389858 76.506709,60.726946 76.506709,60.726946 L 80.219019,52.418441 z"/></g></g></svg>