<svg xmlns="http://www.w3.org/2000/svg" xmlns:cc="http://web.resource.org/cc/" xmlns:svg="http://www.w3.org/2000/svg" xmlns:xlink="http://www.w3.org/1999/xlink" id="svg14503" width="22.495" height="19.545" version="1.0"><defs id="defs14505"><linearGradient id="linearGradient25170"><stop id="stop25172" offset="0" stop-color="#ff1b1b" stop-opacity="1"/><stop id="stop25174" offset=".5" stop-color="#970b0b" stop-opacity="1"/><stop id="stop25176" offset="1" stop-color="#ff0909" stop-opacity="1"/></linearGradient><linearGradient id="linearGradient24190" x1="31.82" x2="44.636" y1="57.728" y2="63.915" gradientTransform="translate(69.480559,-0.376748)" gradientUnits="userSpaceOnUse" xlink:href="#linearGradient25170"/><linearGradient id="linearGradient24193" x1="31.82" x2="44.636" y1="57.728" y2="63.915" gradientTransform="translate(69.70153,0.4369771)" gradientUnits="userSpaceOnUse" xlink:href="#linearGradient12165"/><linearGradient id="linearGradient8263"><stop id="stop8265" offset="0" stop-color="#a4faf7" stop-opacity="1"/><stop id="stop8267" offset="1" stop-color="#0a827d" stop-opacity="1"/></linearGradient><linearGradient id="linearGradient24196" x1="26.693" x2="28.549" y1="64.33" y2="65.214" gradientTransform="translate(69.480559,-0.376748)" gradientUnits="userSpaceOnUse" xlink:href="#linearGradient8263"/><linearGradient id="linearGradient12165"><stop id="stop12167" offset="0" stop-color="#000" stop-opacity="1"/><stop id="stop12169" offset="1" stop-color="#000" stop-opacity=".522"/></linearGradient><linearGradient id="linearGradient24199" x1="26.693" x2="28.549" y1="64.33" y2="65.214" gradientTransform="translate(69.931122,0.164704)" gradientUnits="userSpaceOnUse" xlink:href="#linearGradient12165"/></defs><metadata id="metadata14508"/><g id="layer1" transform="translate(-511.60972,-876.87542)"><g id="g14497" transform="translate(418.79464,824.54537)"><path id="path23204" fill="url(#linearGradient24199)" fill-opacity="1" fill-rule="evenodd" stroke="none" stroke-linecap="butt" stroke-linejoin="miter" stroke-opacity="1" stroke-width="1" d="M 93.265646,71.875 L 102.01609,52.871505 L 103.69547,52.871505 L 95.475354,71.875 L 93.265646,71.875 z"/><path id="path23206" fill="url(#linearGradient24196)" fill-opacity="1" fill-rule="evenodd" stroke="none" stroke-linecap="butt" stroke-linejoin="miter" stroke-opacity="1" stroke-width="1" d="M 92.815083,71.333548 L 101.56553,52.330053 L 103.24491,52.330053 L 95.024791,71.333548 L 92.815083,71.333548 z"/><path id="path23208" fill="url(#linearGradient24193)" fill-opacity="1" fill-rule="evenodd" stroke="none" stroke-dasharray="none" stroke-dashoffset="0" stroke-linecap="butt" stroke-linejoin="bevel" stroke-miterlimit="4" stroke-opacity="1" stroke-width="0" d="M 103.37749,53.232166 C 103.37749,53.232166 108.5924,53.917176 109.29951,58.181914 C 110.00912,62.461779 115.30992,61.982613 115.30992,61.982613 L 112.21632,69.760787 C 112.21632,69.760787 103.87764,70.456422 103.55427,66.755583 C 103.15652,62.203583 99.66518,61.540671 99.66518,61.540671 L 103.37749,53.232166 z"/><path id="path23210" fill="url(#linearGradient24190)" fill-opacity="1" fill-rule="evenodd" stroke="none" stroke-dasharray="none" stroke-dashoffset="0" stroke-linecap="butt" stroke-linejoin="bevel" stroke-miterlimit="4" stroke-opacity="1" stroke-width="0" d="M 103.15652,52.418441 C 103.15652,52.418441 108.37143,53.103451 109.07854,57.368189 C 109.78815,61.648054 115.08895,61.168888 115.08895,61.168888 L 111.99535,68.947062 C 111.99535,68.947062 103.65667,69.642697 103.3333,65.941858 C 102.93555,61.389858 99.444209,60.726946 99.444209,60.726946 L 103.15652,52.418441 z"/></g></g></svg>