<svg xmlns="http://www.w3.org/2000/svg" xmlns:cc="http://web.resource.org/cc/" xmlns:svg="http://www.w3.org/2000/svg" xmlns:xlink="http://www.w3.org/1999/xlink" id="svg13435" width="22.495" height="19.545" version="1.0"><defs id="defs13437"><linearGradient id="linearGradient16211"><stop id="stop16213" offset="0" stop-color="#ff821b" stop-opacity="1"/><stop id="stop16229" offset=".5" stop-color="#973b0b" stop-opacity="1"/><stop id="stop16217" offset="1" stop-color="#ff7f09" stop-opacity="1"/></linearGradient><linearGradient id="linearGradient17206" x1="31.82" x2="44.636" y1="57.728" y2="63.915" gradientUnits="userSpaceOnUse" xlink:href="#linearGradient16211"/><linearGradient id="linearGradient18207" x1="31.82" x2="44.636" y1="57.728" y2="63.915" gradientTransform="translate(0.2209709,0.8137251)" gradientUnits="userSpaceOnUse" xlink:href="#linearGradient12165"/><linearGradient id="linearGradient8263"><stop id="stop8265" offset="0" stop-color="#a4faf7" stop-opacity="1"/><stop id="stop8267" offset="1" stop-color="#0a827d" stop-opacity="1"/></linearGradient><linearGradient id="linearGradient14254" x1="26.693" x2="28.549" y1="64.33" y2="65.214" gradientUnits="userSpaceOnUse" xlink:href="#linearGradient8263"/><linearGradient id="linearGradient12165"><stop id="stop12167" offset="0" stop-color="#000" stop-opacity="1"/><stop id="stop12169" offset="1" stop-color="#000" stop-opacity=".522"/></linearGradient><linearGradient id="linearGradient19194" x1="26.693" x2="28.549" y1="64.33" y2="65.214" gradientTransform="translate(0.4505634,0.541452)" gradientUnits="userSpaceOnUse" xlink:href="#linearGradient12165"/></defs><metadata id="metadata13440"/><g id="layer1" transform="translate(-314.46686,-528.30399)"><g id="g20165" transform="translate(291.13234,475.59719)"><path id="path19192" fill="url(#linearGradient19194)" fill-opacity="1" fill-rule="evenodd" stroke="none" stroke-linecap="butt" stroke-linejoin="miter" stroke-opacity="1" stroke-width="1" d="M 23.785087,72.251748 L 32.535533,53.248253 L 34.214912,53.248253 L 25.994795,72.251748 L 23.785087,72.251748 z"/><path id="path12306" fill="url(#linearGradient14254)" fill-opacity="1" fill-rule="evenodd" stroke="none" stroke-linecap="butt" stroke-linejoin="miter" stroke-opacity="1" stroke-width="1" d="M 23.334524,71.710296 L 32.08497,52.706801 L 33.764349,52.706801 L 25.544232,71.710296 L 23.334524,71.710296 z"/><path id="path18205" fill="url(#linearGradient18207)" fill-opacity="1" fill-rule="evenodd" stroke="none" stroke-dasharray="none" stroke-dashoffset="0" stroke-linecap="butt" stroke-linejoin="bevel" stroke-miterlimit="4" stroke-opacity="1" stroke-width="0" d="M 33.896931,53.608914 C 33.896931,53.608914 39.111844,54.293924 39.818951,58.558662 C 40.528566,62.838527 45.829358,62.359361 45.829358,62.359361 L 42.735766,70.137535 C 42.735766,70.137535 34.397082,70.83317 34.073708,67.132331 C 33.675961,62.580331 30.184621,61.917419 30.184621,61.917419 L 33.896931,53.608914 z"/><path id="path12308" fill="url(#linearGradient17206)" fill-opacity="1" fill-rule="evenodd" stroke="none" stroke-dasharray="none" stroke-dashoffset="0" stroke-linecap="butt" stroke-linejoin="bevel" stroke-miterlimit="4" stroke-opacity="1" stroke-width="0" d="M 33.67596,52.795189 C 33.67596,52.795189 38.890873,53.480199 39.59798,57.744937 C 40.307595,62.024802 45.608387,61.545636 45.608387,61.545636 L 42.514795,69.32381 C 42.514795,69.32381 34.176111,70.019445 33.852737,66.318606 C 33.45499,61.766606 29.96365,61.103694 29.96365,61.103694 L 33.67596,52.795189 z"/></g></g></svg>