<svg xmlns="http://www.w3.org/2000/svg" xmlns:cc="http://web.resource.org/cc/" xmlns:svg="http://www.w3.org/2000/svg" xmlns:xlink="http://www.w3.org/1999/xlink" id="svg14530" width="22.495" height="19.545" version="1.0"><defs id="defs14532"><linearGradient id="linearGradient26177"><stop id="stop26179" offset="0" stop-color="#1b4fff" stop-opacity="1"/><stop id="stop26181" offset=".5" stop-color="#0b3297" stop-opacity="1"/><stop id="stop26183" offset="1" stop-color="#094eff" stop-opacity="1"/></linearGradient><linearGradient id="linearGradient25197" x1="31.82" x2="44.636" y1="57.728" y2="63.915" gradientTransform="translate(92.605559,-0.376748)" gradientUnits="userSpaceOnUse" xlink:href="#linearGradient26177"/><linearGradient id="linearGradient25200" x1="31.82" x2="44.636" y1="57.728" y2="63.915" gradientTransform="translate(92.82653,0.4369771)" gradientUnits="userSpaceOnUse" xlink:href="#linearGradient12165"/><linearGradient id="linearGradient8263"><stop id="stop8265" offset="0" stop-color="#a4faf7" stop-opacity="1"/><stop id="stop8267" offset="1" stop-color="#0a827d" stop-opacity="1"/></linearGradient><linearGradient id="linearGradient25203" x1="26.693" x2="28.549" y1="64.33" y2="65.214" gradientTransform="translate(92.605559,-0.376748)" gradientUnits="userSpaceOnUse" xlink:href="#linearGradient8263"/><linearGradient id="linearGradient12165"><stop id="stop12167" offset="0" stop-color="#000" stop-opacity="1"/><stop id="stop12169" offset="1" stop-color="#000" stop-opacity=".522"/></linearGradient><linearGradient id="linearGradient25206" x1="26.693" x2="28.549" y1="64.33" y2="65.214" gradientTransform="translate(93.056122,0.164704)" gradientUnits="userSpaceOnUse" xlink:href="#linearGradient12165"/></defs><metadata id="metadata14535"/><g id="layer1" transform="translate(-680.18115,-691.16113)"><g id="g28185" transform="translate(564.24107,638.83108)"><path id="path25180" fill="url(#linearGradient25206)" fill-opacity="1" fill-rule="evenodd" stroke="none" stroke-linecap="butt" stroke-linejoin="miter" stroke-opacity="1" stroke-width="1" d="M 116.39065,71.875 L 125.14109,52.871505 L 126.82047,52.871505 L 118.60035,71.875 L 116.39065,71.875 z"/><path id="path25182" fill="url(#linearGradient25203)" fill-opacity="1" fill-rule="evenodd" stroke="none" stroke-linecap="butt" stroke-linejoin="miter" stroke-opacity="1" stroke-width="1" d="M 115.94008,71.333548 L 124.69053,52.330053 L 126.36991,52.330053 L 118.14979,71.333548 L 115.94008,71.333548 z"/><path id="path25184" fill="url(#linearGradient25200)" fill-opacity="1" fill-rule="evenodd" stroke="none" stroke-dasharray="none" stroke-dashoffset="0" stroke-linecap="butt" stroke-linejoin="bevel" stroke-miterlimit="4" stroke-opacity="1" stroke-width="0" d="M 126.50249,53.232166 C 126.50249,53.232166 131.7174,53.917176 132.42451,58.181914 C 133.13412,62.461779 138.43492,61.982613 138.43492,61.982613 L 135.34132,69.760787 C 135.34132,69.760787 127.00264,70.456422 126.67927,66.755583 C 126.28152,62.203583 122.79018,61.540671 122.79018,61.540671 L 126.50249,53.232166 z"/><path id="path25186" fill="url(#linearGradient25197)" fill-opacity="1" fill-rule="evenodd" stroke="none" stroke-dasharray="none" stroke-dashoffset="0" stroke-linecap="butt" stroke-linejoin="bevel" stroke-miterlimit="4" stroke-opacity="1" stroke-width="0" d="M 126.28152,52.418441 C 126.28152,52.418441 131.49643,53.103451 132.20354,57.368189 C 132.91315,61.648054 138.21395,61.168888 138.21395,61.168888 L 135.12035,68.947062 C 135.12035,68.947062 126.78167,69.642697 126.4583,65.941858 C 126.06055,61.389858 122.56921,60.726946 122.56921,60.726946 L 126.28152,52.418441 z"/></g></g></svg>