<svg xmlns="http://www.w3.org/2000/svg" xmlns:cc="http://web.resource.org/cc/" xmlns:svg="http://www.w3.org/2000/svg" xmlns:xlink="http://www.w3.org/1999/xlink" id="svg13468" width="22.495" height="19.545" version="1.0"><defs id="defs13470"><linearGradient id="linearGradient23122"><stop id="stop23124" offset="0" stop-color="#8d8d8d" stop-opacity="1"/><stop id="stop23126" offset=".5" stop-color="#515151" stop-opacity="1"/><stop id="stop23128" offset="1" stop-color="#848484" stop-opacity="1"/></linearGradient><linearGradient id="linearGradient29192" x1="31.82" x2="44.636" y1="57.728" y2="63.915" gradientTransform="translate(23.543059,-0.354274)" gradientUnits="userSpaceOnUse" xlink:href="#linearGradient23122"/><linearGradient id="linearGradient29195" x1="31.82" x2="44.636" y1="57.728" y2="63.915" gradientTransform="translate(23.76403,0.4594511)" gradientUnits="userSpaceOnUse" xlink:href="#linearGradient12165"/><linearGradient id="linearGradient8263"><stop id="stop8265" offset="0" stop-color="#a4faf7" stop-opacity="1"/><stop id="stop8267" offset="1" stop-color="#0a827d" stop-opacity="1"/></linearGradient><linearGradient id="linearGradient29198" x1="26.693" x2="28.549" y1="64.33" y2="65.214" gradientTransform="translate(23.543059,-0.354274)" gradientUnits="userSpaceOnUse" xlink:href="#linearGradient8263"/><linearGradient id="linearGradient12165"><stop id="stop12167" offset="0" stop-color="#000" stop-opacity="1"/><stop id="stop12169" offset="1" stop-color="#000" stop-opacity=".522"/></linearGradient><linearGradient id="linearGradient29201" x1="26.693" x2="28.549" y1="64.33" y2="65.214" gradientTransform="translate(23.993622,0.187178)" gradientUnits="userSpaceOnUse" xlink:href="#linearGradient12165"/></defs><metadata id="metadata13473"/><g id="layer1" transform="translate(-771.60972,-742.58971)"><g id="g13462" transform="translate(724.73214,690.23718)"><path id="path21168" fill="url(#linearGradient29201)" fill-opacity="1" fill-rule="evenodd" stroke="none" stroke-linecap="butt" stroke-linejoin="miter" stroke-opacity="1" stroke-width="1" d="M 47.328146,71.897474 L 56.078592,52.893979 L 57.757971,52.893979 L 49.537854,71.897474 L 47.328146,71.897474 z"/><path id="path21170" fill="url(#linearGradient29198)" fill-opacity="1" fill-rule="evenodd" stroke="none" stroke-linecap="butt" stroke-linejoin="miter" stroke-opacity="1" stroke-width="1" d="M 46.877583,71.356022 L 55.628029,52.352527 L 57.307408,52.352527 L 49.087291,71.356022 L 46.877583,71.356022 z"/><path id="path21172" fill="url(#linearGradient29195)" fill-opacity="1" fill-rule="evenodd" stroke="none" stroke-dasharray="none" stroke-dashoffset="0" stroke-linecap="butt" stroke-linejoin="bevel" stroke-miterlimit="4" stroke-opacity="1" stroke-width="0" d="M 57.43999,53.25464 C 57.43999,53.25464 62.654903,53.93965 63.36201,58.204388 C 64.071625,62.484253 69.372417,62.005087 69.372417,62.005087 L 66.278825,69.783261 C 66.278825,69.783261 57.940141,70.478896 57.616767,66.778057 C 57.21902,62.226057 53.72768,61.563145 53.72768,61.563145 L 57.43999,53.25464 z"/><path id="path21174" fill="url(#linearGradient29192)" fill-opacity="1" fill-rule="evenodd" stroke="none" stroke-dasharray="none" stroke-dashoffset="0" stroke-linecap="butt" stroke-linejoin="bevel" stroke-miterlimit="4" stroke-opacity="1" stroke-width="0" d="M 57.219019,52.440915 C 57.219019,52.440915 62.433932,53.125925 63.141039,57.390663 C 63.850654,61.670528 69.151446,61.191362 69.151446,61.191362 L 66.057854,68.969536 C 66.057854,68.969536 57.71917,69.665171 57.395796,65.964332 C 56.998049,61.412332 53.506709,60.74942 53.506709,60.74942 L 57.219019,52.440915 z"/></g></g></svg>