<svg xmlns="http://www.w3.org/2000/svg" xmlns:cc="http://web.resource.org/cc/" xmlns:svg="http://www.w3.org/2000/svg" xmlns:xlink="http://www.w3.org/1999/xlink" id="svg14584" width="22.495" height="19.545" version="1.0"><defs id="defs14586"><linearGradient id="linearGradient29172"><stop id="stop29174" offset="0" stop-color="#1bf3ff" stop-opacity="1"/><stop id="stop29176" offset=".5" stop-color="#0b9097" stop-opacity="1"/><stop id="stop29178" offset="1" stop-color="#09ecff" stop-opacity="1"/></linearGradient><linearGradient id="linearGradient28192" x1="31.82" x2="44.636" y1="57.728" y2="63.915" gradientTransform="translate(138.66806,-0.376748)" gradientUnits="userSpaceOnUse" xlink:href="#linearGradient29172"/><linearGradient id="linearGradient28195" x1="31.82" x2="44.636" y1="57.728" y2="63.915" gradientTransform="translate(138.88903,0.4369771)" gradientUnits="userSpaceOnUse" xlink:href="#linearGradient12165"/><linearGradient id="linearGradient8263"><stop id="stop8265" offset="0" stop-color="#a4faf7" stop-opacity="1"/><stop id="stop8267" offset="1" stop-color="#0a827d" stop-opacity="1"/></linearGradient><linearGradient id="linearGradient28198" x1="26.693" x2="28.549" y1="64.33" y2="65.214" gradientTransform="translate(138.66806,-0.376748)" gradientUnits="userSpaceOnUse" xlink:href="#linearGradient8263"/><linearGradient id="linearGradient12165"><stop id="stop12167" offset="0" stop-color="#000" stop-opacity="1"/><stop id="stop12169" offset="1" stop-color="#000" stop-opacity=".522"/></linearGradient><linearGradient id="linearGradient28201" x1="26.693" x2="28.549" y1="64.33" y2="65.214" gradientTransform="translate(139.11862,0.164704)" gradientUnits="userSpaceOnUse" xlink:href="#linearGradient12165"/></defs><metadata id="metadata14589"/><g id="layer1" transform="translate(-280.18115,-242.58971)"><g id="g29180" transform="translate(118.17857,190.25966)"><path id="path28163" fill="url(#linearGradient28201)" fill-opacity="1" fill-rule="evenodd" stroke="none" stroke-linecap="butt" stroke-linejoin="miter" stroke-opacity="1" stroke-width="1" d="M 162.45315,71.875 L 171.20359,52.871505 L 172.88297,52.871505 L 164.66286,71.875 L 162.45315,71.875 z"/><path id="path28165" fill="url(#linearGradient28198)" fill-opacity="1" fill-rule="evenodd" stroke="none" stroke-linecap="butt" stroke-linejoin="miter" stroke-opacity="1" stroke-width="1" d="M 162.00258,71.333548 L 170.75303,52.330053 L 172.43241,52.330053 L 164.21229,71.333548 L 162.00258,71.333548 z"/><path id="path28167" fill="url(#linearGradient28195)" fill-opacity="1" fill-rule="evenodd" stroke="none" stroke-dasharray="none" stroke-dashoffset="0" stroke-linecap="butt" stroke-linejoin="bevel" stroke-miterlimit="4" stroke-opacity="1" stroke-width="0" d="M 172.56499,53.232166 C 172.56499,53.232166 177.7799,53.917176 178.48701,58.181914 C 179.19663,62.461779 184.49742,61.982613 184.49742,61.982613 L 181.40383,69.760787 C 181.40383,69.760787 173.06514,70.456422 172.74177,66.755583 C 172.34402,62.203583 168.85268,61.540671 168.85268,61.540671 L 172.56499,53.232166 z"/><path id="path28169" fill="url(#linearGradient28192)" fill-opacity="1" fill-rule="evenodd" stroke="none" stroke-dasharray="none" stroke-dashoffset="0" stroke-linecap="butt" stroke-linejoin="bevel" stroke-miterlimit="4" stroke-opacity="1" stroke-width="0" d="M 172.34402,52.418441 C 172.34402,52.418441 177.55893,53.103451 178.26604,57.368189 C 178.97565,61.648054 184.27645,61.168888 184.27645,61.168888 L 181.18285,68.947062 C 181.18285,68.947062 172.84417,69.642697 172.5208,65.941858 C 172.12305,61.389858 168.63171,60.726946 168.63171,60.726946 L 172.34402,52.418441 z"/></g></g></svg>