<svg xmlns="http://www.w3.org/2000/svg" xmlns:cc="http://web.resource.org/cc/" xmlns:svg="http://www.w3.org/2000/svg" xmlns:xlink="http://www.w3.org/1999/xlink" id="svg14557" width="22.495" height="19.545" version="1.0"><defs id="defs14559"><linearGradient id="linearGradient28153"><stop id="stop28155" offset="0" stop-color="#ff1be9" stop-opacity="1"/><stop id="stop28157" offset=".5" stop-color="#970b86" stop-opacity="1"/><stop id="stop28159" offset="1" stop-color="#ff09cd" stop-opacity="1"/></linearGradient><linearGradient id="linearGradient27173" x1="31.82" x2="44.636" y1="57.728" y2="63.915" gradientTransform="translate(115.35556,-0.376748)" gradientUnits="userSpaceOnUse" xlink:href="#linearGradient28153"/><linearGradient id="linearGradient27176" x1="31.82" x2="44.636" y1="57.728" y2="63.915" gradientTransform="translate(115.57653,0.4369771)" gradientUnits="userSpaceOnUse" xlink:href="#linearGradient12165"/><linearGradient id="linearGradient8263"><stop id="stop8265" offset="0" stop-color="#a4faf7" stop-opacity="1"/><stop id="stop8267" offset="1" stop-color="#0a827d" stop-opacity="1"/></linearGradient><linearGradient id="linearGradient27179" x1="26.693" x2="28.549" y1="64.33" y2="65.214" gradientTransform="translate(115.35556,-0.376748)" gradientUnits="userSpaceOnUse" xlink:href="#linearGradient8263"/><linearGradient id="linearGradient12165"><stop id="stop12167" offset="0" stop-color="#000" stop-opacity="1"/><stop id="stop12169" offset="1" stop-color="#000" stop-opacity=".522"/></linearGradient><linearGradient id="linearGradient27182" x1="26.693" x2="28.549" y1="64.33" y2="65.214" gradientTransform="translate(115.80612,0.164704)" gradientUnits="userSpaceOnUse" xlink:href="#linearGradient12165"/></defs><metadata id="metadata14562"/><g id="layer1" transform="translate(-303.03829,-248.30399)"><g id="g28179" transform="translate(164.34821,195.97394)"><path id="path26187" fill="url(#linearGradient27182)" fill-opacity="1" fill-rule="evenodd" stroke="none" stroke-linecap="butt" stroke-linejoin="miter" stroke-opacity="1" stroke-width="1" d="M 139.14065,71.875 L 147.89109,52.871505 L 149.57047,52.871505 L 141.35036,71.875 L 139.14065,71.875 z"/><path id="path26189" fill="url(#linearGradient27179)" fill-opacity="1" fill-rule="evenodd" stroke="none" stroke-linecap="butt" stroke-linejoin="miter" stroke-opacity="1" stroke-width="1" d="M 138.69008,71.333548 L 147.44053,52.330053 L 149.11991,52.330053 L 140.89979,71.333548 L 138.69008,71.333548 z"/><path id="path26191" fill="url(#linearGradient27176)" fill-opacity="1" fill-rule="evenodd" stroke="none" stroke-dasharray="none" stroke-dashoffset="0" stroke-linecap="butt" stroke-linejoin="bevel" stroke-miterlimit="4" stroke-opacity="1" stroke-width="0" d="M 149.25249,53.232166 C 149.25249,53.232166 154.4674,53.917176 155.17451,58.181914 C 155.88413,62.461779 161.18492,61.982613 161.18492,61.982613 L 158.09133,69.760787 C 158.09133,69.760787 149.75264,70.456422 149.42927,66.755583 C 149.03152,62.203583 145.54018,61.540671 145.54018,61.540671 L 149.25249,53.232166 z"/><path id="path26193" fill="url(#linearGradient27173)" fill-opacity="1" fill-rule="evenodd" stroke="none" stroke-dasharray="none" stroke-dashoffset="0" stroke-linecap="butt" stroke-linejoin="bevel" stroke-miterlimit="4" stroke-opacity="1" stroke-width="0" d="M 149.03152,52.418441 C 149.03152,52.418441 154.24643,53.103451 154.95354,57.368189 C 155.66315,61.648054 160.96395,61.168888 160.96395,61.168888 L 157.87035,68.947062 C 157.87035,68.947062 149.53167,69.642697 149.2083,65.941858 C 148.81055,61.389858 145.31921,60.726946 145.31921,60.726946 L 149.03152,52.418441 z"/></g></g></svg>