<svg xmlns="http://www.w3.org/2000/svg" xmlns:cc="http://web.resource.org/cc/" xmlns:svg="http://www.w3.org/2000/svg" id="svg13391" width="24.335" height="21.771" version="1.0"><metadata id="metadata13396"/><g id="layer1" transform="translate(-524.97559,-701.47655)"><path id="path7600" fill="none" fill-rule="evenodd" stroke="#a4faf7" stroke-linecap="butt" stroke-linejoin="miter" stroke-opacity="1" stroke-width="1" d="M 525.47559,722.21748 L 525.47559,717.09096 L 533.25377,702.33011 C 533.25377,702.33011 536.92189,701.53461 539.26418,702.33011 C 541.60647,703.1256 541.78324,703.94319 542.62293,705.51209 C 543.46262,707.08098 542.1147,707.36824 542.62293,708.60568 C 543.13117,709.84312 543.21955,709.9757 544.65587,710.46183 C 546.09218,710.94797 548.81012,711.08055 548.81012,711.08055 L 545.27459,720.36133 C 545.27459,720.36133 543.12266,720.8117 540.76678,720.71488 C 539.15369,720.64859 537.18705,720.40552 536.17058,718.77034 C 535.15412,717.13515 535.35299,715.19061 534.40282,713.99737 C 533.45264,712.80413 532.36989,713.99737 532.36989,713.99737 L 528.39241,722.74781 L 525.47559,722.21748 z"/></g></svg>