<svg xmlns="http://www.w3.org/2000/svg" xmlns:cc="http://web.resource.org/cc/" xmlns:svg="http://www.w3.org/2000/svg" xmlns:xlink="http://www.w3.org/1999/xlink" id="svg14647" width="25.66" height="22.295" version="1.0"><defs id="defs14649"><linearGradient id="linearGradient4829"><stop id="stop4831" offset="0" stop-color="#a4faf7" stop-opacity="1"/><stop id="stop4833" offset=".5" stop-color="#09a7a1" stop-opacity="1"/><stop id="stop4835" offset="1" stop-color="#a4faf7" stop-opacity="1"/></linearGradient><linearGradient id="linearGradient3849" x1="31.82" x2="44.636" y1="57.728" y2="63.915" gradientTransform="matrix(1.1407013,0,0,1.1407013,190.67733,-57.270192)" gradientUnits="userSpaceOnUse" xlink:href="#linearGradient4829"/><linearGradient id="linearGradient3852" x1="31.82" x2="44.636" y1="57.728" y2="63.915" gradientTransform="matrix(1.1407013,0,0,1.1407013,190.92939,-56.341975)" gradientUnits="userSpaceOnUse" xlink:href="#linearGradient12165"/><linearGradient id="linearGradient8263"><stop id="stop8265" offset="0" stop-color="#a4faf7" stop-opacity="1"/><stop id="stop8267" offset="1" stop-color="#0a827d" stop-opacity="1"/></linearGradient><linearGradient id="linearGradient3855" x1="26.693" x2="28.549" y1="64.33" y2="65.214" gradientTransform="matrix(1.1407013,0,0,1.1407013,190.67733,-57.270192)" gradientUnits="userSpaceOnUse" xlink:href="#linearGradient8263"/><linearGradient id="linearGradient12165"><stop id="stop12167" offset="0" stop-color="#000" stop-opacity="1"/><stop id="stop12169" offset="1" stop-color="#000" stop-opacity=".522"/></linearGradient><linearGradient id="linearGradient3858" x1="26.693" x2="28.549" y1="64.33" y2="65.214" gradientTransform="matrix(1.1407013,0,0,1.1407013,191.19129,-56.652557)" gradientUnits="userSpaceOnUse" xlink:href="#linearGradient12165"/></defs><metadata id="metadata14652"/><g id="layer1" transform="translate(-218.59863,-261.2147)"><g id="g14641" transform="translate(1.3035764,258.36218)"><path id="path3832" fill="url(#linearGradient3858)" fill-opacity="1" fill-rule="evenodd" stroke="none" stroke-linecap="butt" stroke-linejoin="miter" stroke-opacity="1" stroke-width="1" d="M 217.80901,25.147471 L 227.79065,3.4701595 L 229.70632,3.4701595 L 220.32963,25.147471 L 217.80901,25.147471 z"/><path id="path3834" fill="url(#linearGradient3855)" fill-opacity="1" fill-rule="evenodd" stroke="none" stroke-linecap="butt" stroke-linejoin="miter" stroke-opacity="1" stroke-width="1" d="M 217.29505,24.529836 L 227.2767,2.8525245 L 229.19237,2.8525245 L 219.81567,24.529836 L 217.29505,24.529836 z"/><path id="path3836" fill="url(#linearGradient3852)" fill-opacity="1" fill-rule="evenodd" stroke="none" stroke-dasharray="none" stroke-dashoffset="0" stroke-linecap="butt" stroke-linejoin="bevel" stroke-miterlimit="4" stroke-opacity="1" stroke-width="0" d="M 229.3436,3.881566 C 229.3436,3.881566 235.29226,4.6629578 236.09886,9.5277499 C 236.90832,14.409798 242.95494,13.863212 242.95494,13.863212 L 239.42608,22.735785 C 239.42608,22.735785 229.91413,23.529297 229.54526,19.307745 C 229.09154,14.115273 225.10897,13.359088 225.10897,13.359088 L 229.3436,3.881566 z"/><path id="path3838" fill="url(#linearGradient3849)" fill-opacity="1" fill-rule="evenodd" stroke="none" stroke-dasharray="none" stroke-dashoffset="0" stroke-linecap="butt" stroke-linejoin="bevel" stroke-miterlimit="4" stroke-opacity="1" stroke-width="0" d="M 229.09154,2.9533488 C 229.09154,2.9533488 235.0402,3.7347406 235.8468,8.5995328 C 236.65625,13.48158 242.70288,12.934995 242.70288,12.934995 L 239.17401,21.807568 C 239.17401,21.807568 229.66206,22.60108 229.2932,18.379528 C 228.83948,13.187056 224.85691,12.430871 224.85691,12.430871 L 229.09154,2.9533488 z"/></g></g></svg>