<svg xmlns="http://www.w3.org/2000/svg" xmlns:cc="http://web.resource.org/cc/" xmlns:svg="http://www.w3.org/2000/svg" xmlns:xlink="http://www.w3.org/1999/xlink" id="svg5476" width="37.063" height="28.871" version="1.0"><defs id="defs5478"><linearGradient id="linearGradient9953" x1="123.375" x2="128.813" y1="34.844" y2="40.031" gradientUnits="userSpaceOnUse" xlink:href="#linearGradient6995"/><linearGradient id="linearGradient9951" x1="129.938" x2="131.75" y1="44.438" y2="42.625" gradientUnits="userSpaceOnUse" xlink:href="#linearGradient6995"/><linearGradient id="linearGradient6995"><stop id="stop6997" offset="0" stop-color="#fad248" stop-opacity="1"/><stop id="stop7003" offset=".5" stop-color="#fad248" stop-opacity="1"/><stop id="stop6999" offset="1" stop-color="#b28c02" stop-opacity="1"/></linearGradient><linearGradient id="linearGradient9949" x1="116.75" x2="120.813" y1="41.026" y2="44.026" gradientUnits="userSpaceOnUse" xlink:href="#linearGradient6995"/><linearGradient id="linearGradient15859"><stop id="stop15861" offset="0" stop-color="#5e290b" stop-opacity="1"/><stop id="stop15863" offset="1" stop-color="#974313" stop-opacity="1"/></linearGradient><radialGradient id="radialGradient15867" cx="131.787" cy="51.204" r="17.957" fx="131.787" fy="51.204" gradientTransform="matrix(1,0,0,0.7817294,-2.6516504,2.8678683)" gradientUnits="userSpaceOnUse" xlink:href="#linearGradient15859"/><radialGradient id="radialGradient5515" cx="131.787" cy="51.204" r="17.957" fx="131.787" fy="51.204" gradientTransform="matrix(1,0,0,0.7817294,527.63845,337.6509)" gradientUnits="userSpaceOnUse" xlink:href="#linearGradient15859"/><linearGradient id="linearGradient5518" x1="116.75" x2="120.813" y1="41.026" y2="44.026" gradientUnits="userSpaceOnUse" xlink:href="#linearGradient6995"/><linearGradient id="linearGradient5520" x1="129.938" x2="131.75" y1="44.438" y2="42.625" gradientUnits="userSpaceOnUse" xlink:href="#linearGradient6995"/><linearGradient id="linearGradient5522" x1="123.375" x2="128.813" y1="34.844" y2="40.031" gradientUnits="userSpaceOnUse" xlink:href="#linearGradient6995"/><linearGradient id="linearGradient5525" x1="123.375" x2="128.813" y1="34.844" y2="40.031" gradientTransform="translate(530.2901,334.69464)" gradientUnits="userSpaceOnUse" xlink:href="#linearGradient6995"/><linearGradient id="linearGradient5528" x1="129.938" x2="131.75" y1="44.438" y2="42.625" gradientTransform="translate(530.2901,334.69464)" gradientUnits="userSpaceOnUse" xlink:href="#linearGradient6995"/><linearGradient id="linearGradient5531" x1="116.75" x2="120.813" y1="41.026" y2="44.026" gradientTransform="translate(530.2901,334.69464)" gradientUnits="userSpaceOnUse" xlink:href="#linearGradient6995"/></defs><metadata id="metadata5481"/><g id="layer1" transform="translate(-641.46845,-363.64119)"><path id="path15849" fill="#000" fill-opacity="1" fill-rule="evenodd" stroke="#000" stroke-linecap="butt" stroke-linejoin="miter" stroke-opacity="1" stroke-width="1" d="M 652.17959,364.93669 L 669.30304,364.93669 L 678.03155,377.83487 L 678.03155,379.11357 L 669.35864,392.01175 L 652.12399,391.95616 L 643.1175,379.05797 L 643.1175,377.83487 L 652.17959,364.93669 z"/><path id="path14864" fill="url(#radialGradient5515)" fill-opacity="1" fill-rule="evenodd" stroke="#cce6ff" stroke-linecap="butt" stroke-linejoin="miter" stroke-opacity="1" stroke-width="1" d="M 651.03054,364.14119 L 668.15399,364.14119 L 676.8825,377.03937 L 676.8825,378.31807 L 668.20959,391.21626 L 650.97494,391.16066 L 641.96845,378.26248 L 641.96845,377.03937 L 651.03054,364.14119 z"/><path id="path8966" fill="#000" fill-opacity="1" fill-rule="evenodd" stroke="none" stroke-linecap="butt" stroke-linejoin="miter" stroke-opacity="1" stroke-width="1" d="M 646.6026,377.31964 L 650.5401,380.88214 L 654.0401,377.88214 L 649.9151,374.63214 L 646.6026,377.31964 z"/><path id="path8968" fill="#000" fill-opacity="1" fill-rule="evenodd" stroke="none" stroke-linecap="butt" stroke-linejoin="miter" stroke-opacity="1" stroke-width="1" d="M 650.7901,370.69464 L 652.5401,371.31964 L 668.6026,386.69464 L 670.7901,384.81964 L 654.2901,369.56964 L 653.9151,367.94464 L 650.7901,370.69464 z"/><path id="path8970" fill="#000" fill-opacity="1" fill-rule="evenodd" stroke="none" stroke-linecap="butt" stroke-linejoin="miter" stroke-opacity="1" stroke-width="1" d="M 649.9151,375.00714 C 649.9151,375.00714 656.55138,367.4267 658.2901,367.06964 C 660.0401,366.71026 660.9151,366.81964 662.9151,367.56964 C 664.9151,368.31964 666.2901,370.06964 666.2901,370.06964 C 666.2901,370.06964 663.30572,369.46026 661.9776,369.88214 C 660.63025,370.31012 653.4776,377.50714 653.4776,377.50714 L 649.9151,375.00714 z"/><path id="path5035" fill="url(#linearGradient5531)" fill-opacity="1" fill-rule="evenodd" stroke="none" stroke-linecap="butt" stroke-linejoin="miter" stroke-opacity="1" stroke-width="1" d="M 645.3526,376.94464 L 649.2901,380.50714 L 652.4151,377.25714 L 648.6651,374.25714 L 645.3526,376.94464 z"/><path id="path5037" fill="url(#linearGradient5528)" fill-opacity="1" fill-rule="evenodd" stroke="none" stroke-linecap="butt" stroke-linejoin="miter" stroke-opacity="1" stroke-width="1" d="M 650.2276,369.81964 L 651.2901,370.94464 L 667.3526,386.31964 L 669.5401,384.44464 L 653.0401,369.19464 L 652.0401,368.13214 L 650.2276,369.81964 z"/><path id="path5039" fill="url(#linearGradient5525)" fill-opacity="1" fill-rule="evenodd" stroke="none" stroke-linecap="butt" stroke-linejoin="miter" stroke-opacity="1" stroke-width="1" d="M 648.6651,374.63214 C 648.6651,374.63214 655.30138,367.0517 657.0401,366.69464 C 658.7901,366.33526 659.6651,366.44464 661.6651,367.19464 C 663.6651,367.94464 665.0401,369.69464 665.0401,369.69464 C 665.0401,369.69464 662.05572,369.08526 660.7276,369.50714 C 659.38025,369.93512 652.2276,377.13214 652.2276,377.13214 L 648.6651,374.63214 z"/></g></svg>