<svg xmlns="http://www.w3.org/2000/svg" xmlns:cc="http://web.resource.org/cc/" xmlns:svg="http://www.w3.org/2000/svg" xmlns:xlink="http://www.w3.org/1999/xlink" id="svg6007" width="36.562" height="28.878" version="1.0"><defs id="defs6009"><linearGradient id="linearGradient18467" x1="169.026" x2="175.912" y1="19.422" y2="19.422" gradientUnits="userSpaceOnUse" xlink:href="#linearGradient16324"/><linearGradient id="linearGradient17480" x1="96.492" x2="98.57" y1="12.498" y2="12.498" gradientUnits="userSpaceOnUse" xlink:href="#linearGradient16324"/><linearGradient id="linearGradient17482" x1="96.445" x2="98.523" y1="10.482" y2="10.482" gradientUnits="userSpaceOnUse" xlink:href="#linearGradient16324"/><linearGradient id="linearGradient17484" x1="96.492" x2="98.57" y1="8.498" y2="8.498" gradientUnits="userSpaceOnUse" xlink:href="#linearGradient16324"/><linearGradient id="linearGradient17486" x1="96.492" x2="98.57" y1="6.498" y2="6.498" gradientUnits="userSpaceOnUse" xlink:href="#linearGradient16324"/><linearGradient id="linearGradient17488" x1="96.445" x2="98.523" y1="4.482" y2="4.482" gradientUnits="userSpaceOnUse" xlink:href="#linearGradient16324"/><linearGradient id="linearGradient17490" x1="96.492" x2="98.57" y1="2.498" y2="2.498" gradientUnits="userSpaceOnUse" xlink:href="#linearGradient16324"/><linearGradient id="linearGradient17475" x1="96.492" x2="98.57" y1="12.498" y2="12.498" gradientUnits="userSpaceOnUse" xlink:href="#linearGradient16324"/><linearGradient id="linearGradient17473" x1="96.445" x2="98.523" y1="10.482" y2="10.482" gradientUnits="userSpaceOnUse" xlink:href="#linearGradient16324"/><linearGradient id="linearGradient17471" x1="96.492" x2="98.57" y1="8.498" y2="8.498" gradientUnits="userSpaceOnUse" xlink:href="#linearGradient16324"/><linearGradient id="linearGradient17469" x1="96.492" x2="98.57" y1="6.498" y2="6.498" gradientUnits="userSpaceOnUse" xlink:href="#linearGradient16324"/><linearGradient id="linearGradient17467" x1="96.445" x2="98.523" y1="4.482" y2="4.482" gradientUnits="userSpaceOnUse" xlink:href="#linearGradient16324"/><linearGradient id="linearGradient17465" x1="96.492" x2="98.57" y1="2.498" y2="2.498" gradientUnits="userSpaceOnUse" xlink:href="#linearGradient16324"/><linearGradient id="linearGradient8180"><stop id="stop8182" offset="0" stop-color="#1b99ac" stop-opacity="1"/><stop id="stop8184" offset="1" stop-color="#14707e" stop-opacity="1"/></linearGradient><linearGradient id="linearGradient15297" x1="169.023" x2="175.908" y1="13.381" y2="13.381" gradientTransform="matrix(1,0,0,1.0201923,0,-0.1608163)" gradientUnits="userSpaceOnUse" xlink:href="#linearGradient8180"/><linearGradient id="linearGradient16322" x1="188.187" x2="191.687" y1="10.375" y2="10.375" gradientUnits="userSpaceOnUse" xlink:href="#linearGradient16324"/><linearGradient id="linearGradient16320" x1="188.187" x2="191.687" y1="10.375" y2="10.375" gradientUnits="userSpaceOnUse" xlink:href="#linearGradient16324"/><linearGradient id="linearGradient16318" x1="188.187" x2="191.687" y1="10.375" y2="10.375" gradientUnits="userSpaceOnUse" xlink:href="#linearGradient16324"/><linearGradient id="linearGradient16324"><stop id="stop16326" offset="0" stop-color="#3cd5ec" stop-opacity="1"/><stop id="stop16328" offset="1" stop-color="#22c3dc" stop-opacity="1"/></linearGradient><linearGradient id="linearGradient16316" x1="198.874" x2="209.281" y1="24.687" y2="24.687" gradientTransform="matrix(-2.3167138,0,0,1.9763891,638.29703,-30.675892)" gradientUnits="userSpaceOnUse" xlink:href="#linearGradient16324"/><linearGradient id="linearGradient19443"><stop id="stop19445" offset="0" stop-color="#0f94a8" stop-opacity="1"/><stop id="stop19447" offset="1" stop-color="#21c2db" stop-opacity="1"/></linearGradient><radialGradient id="radialGradient18471" cx="169.5" cy="17.375" r="17.957" fx="169.5" fy="17.375" gradientTransform="matrix(1,0,0,0.7817294,-3.2415072,29.489923)" gradientUnits="userSpaceOnUse" xlink:href="#linearGradient19443"/></defs><metadata id="metadata6012"/><g id="layer1" transform="translate(-133.14766,-266.49482)"><g id="g5956" transform="translate(-15.153794,237.45988)"><path id="path12074" fill="#000" fill-opacity="1" fill-rule="evenodd" stroke="#000" stroke-linecap="butt" stroke-linejoin="miter" stroke-opacity="1" stroke-width="1" d="M 158.51132,30.337466 L 175.63477,30.337466 L 184.36328,43.23565 L 184.36328,44.514349 L 175.69037,57.412533 L 158.45572,57.356937 L 149.44923,44.458753 L 149.44923,43.23565 L 158.51132,30.337466 z"/><path id="path18469" fill="url(#radialGradient18471)" fill-opacity="1" fill-rule="evenodd" stroke="#cce6ff" stroke-linecap="butt" stroke-linejoin="miter" stroke-opacity="1" stroke-width="1" d="M 157.86353,29.534937 L 174.98698,29.534937 L 183.7155,42.433121 L 183.7155,43.71182 L 175.04258,56.610004 L 157.80794,56.554408 L 148.80145,43.656224 L 148.80145,42.433121 L 157.86353,29.534937 z"/><g id="g15299" transform="translate(-11.125,12.75)"><g id="g15197" fill="none" stroke="#000" stroke-opacity="1" transform="translate(11.727321,16.831998)"><path id="path15199" fill="none" fill-opacity="1" fill-rule="evenodd" stroke="#000" stroke-dasharray="none" stroke-linecap="butt" stroke-linejoin="miter" stroke-miterlimit="4" stroke-opacity="1" stroke-width="1" d="M 173.72352,15.089869 L 157.21693,15.336919 C 154.8012,15.373073 154.04954,17.158902 154.03145,18.177977 C 154.00566,19.629302 155.14593,21.150138 157.14454,21.142561 L 173.43393,21.0808 C 176.039,21.070921 176.909,19.598507 176.9814,17.992691 C 177.04817,16.511495 175.35664,15.065426 173.72352,15.089869 z"/></g><g id="g15201" transform="translate(11.171989,16.041455)"><path id="path15203" fill="url(#linearGradient16316)" fill-opacity="1" fill-rule="evenodd" stroke="#a4faf7" stroke-dasharray="none" stroke-linecap="butt" stroke-linejoin="miter" stroke-miterlimit="4" stroke-opacity="1" stroke-width="1" d="M 173.72352,15.089869 L 157.21693,15.336919 C 154.8012,15.373073 154.04954,17.158902 154.03145,18.177977 C 154.00566,19.629302 155.14593,21.150138 157.14454,21.142561 L 173.43393,21.0808 C 176.039,21.070921 176.909,19.598507 176.9814,17.992691 C 177.04817,16.511495 175.35664,15.065426 173.72352,15.089869 z"/><path id="path15205" fill="url(#linearGradient16318)" fill-opacity="1" fill-rule="evenodd" stroke="#a4faf7" stroke-dasharray="none" stroke-dashoffset="0" stroke-linecap="butt" stroke-linejoin="bevel" stroke-miterlimit="4" stroke-opacity="1" stroke-width=".467" d="M 191.43748 10.37501 A 1.4999999 1.4999999 0 1 1 188.43748,10.37501 A 1.4999999 1.4999999 0 1 1 191.43748 10.37501 z" transform="matrix(-2.3167138,0,0,1.9763891,613.53716,-2.4175165)"/><path id="path15207" fill="url(#linearGradient16320)" fill-opacity="1" fill-rule="evenodd" stroke="#a4faf7" stroke-dasharray="none" stroke-dashoffset="0" stroke-linecap="butt" stroke-linejoin="bevel" stroke-miterlimit="4" stroke-opacity="1" stroke-width=".557" d="M 191.43748 10.37501 A 1.4999999 1.4999999 0 1 1 188.43748,10.37501 A 1.4999999 1.4999999 0 1 1 191.43748 10.37501 z" transform="matrix(-1.9443848,0,0,1.6587551,534.70943,0.9066283)"/><path id="path15209" fill="url(#linearGradient16322)" fill-opacity="1" fill-rule="evenodd" stroke="#a4faf7" stroke-dasharray="none" stroke-dashoffset="0" stroke-linecap="butt" stroke-linejoin="bevel" stroke-miterlimit="4" stroke-opacity="1" stroke-width=".467" d="M 191.43748 10.37501 A 1.4999999 1.4999999 0 1 1 188.43748,10.37501 A 1.4999999 1.4999999 0 1 1 191.43748 10.37501 z" transform="matrix(-2.3167138,0,0,1.9763891,597.60974,-2.2652893)"/></g><g id="g15211" transform="translate(11.171989,16.041455)"><g id="g15213" stroke="#0ff" stroke-opacity="1" transform="translate(4.4194174e-2,0.1325825)"><path id="path15215" fill="#73f39b" fill-opacity="1" fill-rule="evenodd" stroke="#a4faf7" stroke-linecap="square" stroke-linejoin="miter" stroke-opacity="1" stroke-width="1" d="M 168.38211,8.387245 L 168.46495,8.3911513"/><path id="path15217" fill="#73f39b" fill-opacity="1" fill-rule="evenodd" stroke="#a4faf7" stroke-linecap="square" stroke-linejoin="miter" stroke-opacity="1" stroke-width="1" d="M 168.38398,10.37162 L 168.46682,10.375526"/><path id="path15219" fill="#73f39b" fill-opacity="1" fill-rule="evenodd" stroke="#a4faf7" stroke-linecap="square" stroke-linejoin="miter" stroke-opacity="1" stroke-width="1" d="M 168.38211,12.387245 L 168.46495,12.391151"/><path id="path15221" fill="#73f39b" fill-opacity="1" fill-rule="evenodd" stroke="#a4faf7" stroke-linecap="square" stroke-linejoin="miter" stroke-opacity="1" stroke-width="1" d="M 168.38211,14.387245 L 168.46495,14.391151"/><path id="path15223" fill="#73f39b" fill-opacity="1" fill-rule="evenodd" stroke="#a4faf7" stroke-linecap="square" stroke-linejoin="miter" stroke-opacity="1" stroke-width="1" d="M 168.38398,16.37162 L 168.46682,16.375526"/><path id="path15225" fill="#73f39b" fill-opacity="1" fill-rule="evenodd" stroke="#a4faf7" stroke-linecap="square" stroke-linejoin="miter" stroke-opacity="1" stroke-width="1" d="M 168.38211,18.387245 L 168.46495,18.391151"/></g><g id="g15227" fill="none" fill-opacity="1" stroke="#0ff" stroke-opacity="1" transform="matrix(9.4253385e-2,0,0,1,167.33367,5.9795397)"><path id="path15229" fill="none" fill-opacity="1" fill-rule="evenodd" stroke="#a4faf7" stroke-linecap="square" stroke-linejoin="miter" stroke-opacity="1" stroke-width="3.257" d="M 98.570313,2.4960937 L 96.492188,2.5"/><path id="path15231" fill="none" fill-opacity="1" fill-rule="evenodd" stroke="#a4faf7" stroke-linecap="square" stroke-linejoin="miter" stroke-opacity="1" stroke-width="3.257" d="M 98.523438,4.4804687 L 96.445313,4.484375"/><path id="path15233" fill="none" fill-opacity="1" fill-rule="evenodd" stroke="#a4faf7" stroke-linecap="square" stroke-linejoin="miter" stroke-opacity="1" stroke-width="3.257" d="M 98.570313,6.4960937 L 96.492188,6.5"/><path id="path15235" fill="none" fill-opacity="1" fill-rule="evenodd" stroke="#a4faf7" stroke-linecap="square" stroke-linejoin="miter" stroke-opacity="1" stroke-width="3.257" d="M 98.570313,8.496094 L 96.492188,8.5"/><path id="path15237" fill="none" fill-opacity="1" fill-rule="evenodd" stroke="#a4faf7" stroke-linecap="square" stroke-linejoin="miter" stroke-opacity="1" stroke-width="3.257" d="M 98.523438,10.480469 L 96.445313,10.484375"/><path id="path15239" fill="none" fill-opacity="1" fill-rule="evenodd" stroke="#a4faf7" stroke-linecap="square" stroke-linejoin="miter" stroke-opacity="1" stroke-width="3.257" d="M 98.570313,12.496094 L 96.492188,12.5"/></g><rect id="rect15241" width="6.886" height="11.052" x="169.023" y="7.964" fill="url(#linearGradient15297)" fill-opacity="1" fill-rule="evenodd" stroke="none" stroke-dasharray="none" stroke-dashoffset="0" stroke-linecap="square" stroke-linejoin="miter" stroke-miterlimit="4" stroke-opacity="1" stroke-width="1"/><rect id="rect15243" width="4.193" height="8.698" x="170.325" y="9.048" fill="none" fill-opacity="1" fill-rule="evenodd" stroke="#a4faf7" stroke-dasharray="none" stroke-dashoffset="0" stroke-linecap="square" stroke-linejoin="miter" stroke-miterlimit="4" stroke-opacity="1" stroke-width="1"/><g id="g15245" fill="none" fill-opacity="1" stroke="#0e84b4" stroke-opacity="1" transform="matrix(9.4253385e-2,0,0,1,167.34081,7.001953)"><path id="path15247" fill="none" fill-opacity="1" fill-rule="evenodd" stroke="url(#linearGradient17465)" stroke-linecap="square" stroke-linejoin="miter" stroke-opacity="1" stroke-width="3.257" d="M 98.570313,2.4960937 L 96.492188,2.5"/><path id="path15249" fill="none" fill-opacity="1" fill-rule="evenodd" stroke="url(#linearGradient17467)" stroke-linecap="square" stroke-linejoin="miter" stroke-opacity="1" stroke-width="3.257" d="M 98.523438,4.4804687 L 96.445313,4.484375"/><path id="path15251" fill="none" fill-opacity="1" fill-rule="evenodd" stroke="url(#linearGradient17469)" stroke-linecap="square" stroke-linejoin="miter" stroke-opacity="1" stroke-width="3.257" d="M 98.570313,6.4960937 L 96.492188,6.5"/><path id="path15253" fill="none" fill-opacity="1" fill-rule="evenodd" stroke="url(#linearGradient17471)" stroke-linecap="square" stroke-linejoin="miter" stroke-opacity="1" stroke-width="3.257" d="M 98.570313,8.496094 L 96.492188,8.5"/><path id="path15255" fill="none" fill-opacity="1" fill-rule="evenodd" stroke="url(#linearGradient17473)" stroke-linecap="square" stroke-linejoin="miter" stroke-opacity="1" stroke-width="3.257" d="M 98.523438,10.480469 L 96.445313,10.484375"/><path id="path15257" fill="none" fill-opacity="1" fill-rule="evenodd" stroke="url(#linearGradient17475)" stroke-linecap="square" stroke-linejoin="miter" stroke-opacity="1" stroke-width="3.257" d="M 98.570313,12.496094 L 96.492188,12.5"/></g><g id="g15259" fill="none" fill-opacity="1" stroke="#0e84b4" stroke-opacity="1" transform="matrix(9.4253385e-2,0,0,1,159.24706,7.001953)"><path id="path15261" fill="none" fill-opacity="1" fill-rule="evenodd" stroke="url(#linearGradient17490)" stroke-linecap="square" stroke-linejoin="miter" stroke-opacity="1" stroke-width="3.257" d="M 98.570313,2.4960937 L 96.492188,2.5"/><path id="path15263" fill="none" fill-opacity="1" fill-rule="evenodd" stroke="url(#linearGradient17488)" stroke-linecap="square" stroke-linejoin="miter" stroke-opacity="1" stroke-width="3.257" d="M 98.523438,4.4804687 L 96.445313,4.484375"/><path id="path15265" fill="none" fill-opacity="1" fill-rule="evenodd" stroke="url(#linearGradient17486)" stroke-linecap="square" stroke-linejoin="miter" stroke-opacity="1" stroke-width="3.257" d="M 98.570313,6.4960937 L 96.492188,6.5"/><path id="path15267" fill="none" fill-opacity="1" fill-rule="evenodd" stroke="url(#linearGradient17484)" stroke-linecap="square" stroke-linejoin="miter" stroke-opacity="1" stroke-width="3.257" d="M 98.570313,8.496094 L 96.492188,8.5"/><path id="path15269" fill="none" fill-opacity="1" fill-rule="evenodd" stroke="url(#linearGradient17482)" stroke-linecap="square" stroke-linejoin="miter" stroke-opacity="1" stroke-width="3.257" d="M 98.523438,10.480469 L 96.445313,10.484375"/><path id="path15271" fill="none" fill-opacity="1" fill-rule="evenodd" stroke="url(#linearGradient17480)" stroke-linecap="square" stroke-linejoin="miter" stroke-opacity="1" stroke-width="3.257" d="M 98.570313,12.496094 L 96.492188,12.5"/></g><rect id="rect15273" width="6.886" height="1.021" x="169.026" y="18.911" fill="url(#linearGradient18467)" fill-opacity="1" fill-rule="evenodd" stroke="none" stroke-dasharray="none" stroke-dashoffset="0" stroke-linecap="square" stroke-linejoin="miter" stroke-miterlimit="4" stroke-opacity="1" stroke-width="1"/></g><path id="path15275" fill="none" fill-rule="evenodd" stroke="#000" stroke-linecap="square" stroke-linejoin="miter" stroke-opacity="1" stroke-width="1" d="M 180.56261,36.43208 L 188.79699,36.46333 L 188.76574,25.447705"/><path id="path15277" fill="none" fill-opacity="1" fill-rule="evenodd" stroke="#000" stroke-dasharray="none" stroke-dashoffset="0" stroke-linecap="square" stroke-linejoin="miter" stroke-miterlimit="4" stroke-opacity="1" stroke-width="1.231" d="M 168.25 202.5625 A 2.4375 4.0625 0 1 1 163.375,202.5625 A 2.4375 4.0625 0 1 1 168.25 202.5625 z" opacity="1" transform="matrix(0.7190083,0,0,0.9178345,49.516508,-158.5254)"/><path id="path15279" fill="none" fill-opacity="1" fill-rule="evenodd" stroke="#000" stroke-dasharray="none" stroke-dashoffset="0" stroke-linecap="square" stroke-linejoin="miter" stroke-miterlimit="4" stroke-opacity="1" stroke-width="1.231" d="M 168.25 202.5625 A 2.4375 4.0625 0 1 1 163.375,202.5625 A 2.4375 4.0625 0 1 1 168.25 202.5625 z" opacity="1" transform="matrix(0.7190083,0,0,0.9178345,53.201425,-158.41067)"/><path id="path15281" fill="#a4faf7" fill-opacity="1" fill-rule="evenodd" stroke="#23abb7" stroke-dasharray="none" stroke-dashoffset="0" stroke-linecap="square" stroke-linejoin="miter" stroke-miterlimit="4" stroke-opacity="1" stroke-width="1.231" d="M 168.25 202.5625 A 2.4375 4.0625 0 1 1 163.375,202.5625 A 2.4375 4.0625 0 1 1 168.25 202.5625 z" opacity="1" transform="matrix(0.7190083,0,0,0.9178345,48.891515,-159.41474)"/><path id="path15283" fill="none" fill-opacity="1" fill-rule="evenodd" stroke="#000" stroke-dasharray="none" stroke-dashoffset="0" stroke-linecap="square" stroke-linejoin="miter" stroke-miterlimit="4" stroke-opacity="1" stroke-width="1.231" d="M 168.25 202.5625 A 2.4375 4.0625 0 1 1 163.375,202.5625 A 2.4375 4.0625 0 1 1 168.25 202.5625 z" opacity="1" transform="matrix(0.7190083,0,0,0.9178345,56.886342,-158.41067)"/><path id="path15285" fill="#a4faf7" fill-opacity="1" fill-rule="evenodd" stroke="#23abb7" stroke-dasharray="none" stroke-dashoffset="0" stroke-linecap="square" stroke-linejoin="miter" stroke-miterlimit="4" stroke-opacity="1" stroke-width="1.231" d="M 168.25 202.5625 A 2.4375 4.0625 0 1 1 163.375,202.5625 A 2.4375 4.0625 0 1 1 168.25 202.5625 z" opacity="1" transform="matrix(0.7190083,0,0,0.9178345,52.576432,-159.30001)"/><path id="path15287" fill="#a4faf7" fill-opacity="1" fill-rule="evenodd" stroke="#23abb7" stroke-dasharray="none" stroke-dashoffset="0" stroke-linecap="square" stroke-linejoin="miter" stroke-miterlimit="4" stroke-opacity="1" stroke-width="1.231" d="M 168.25 202.5625 A 2.4375 4.0625 0 1 1 163.375,202.5625 A 2.4375 4.0625 0 1 1 168.25 202.5625 z" opacity="1" transform="matrix(0.7190083,0,0,0.9178345,56.261349,-159.30001)"/></g></g></g></svg>