<svg xmlns="http://www.w3.org/2000/svg" xmlns:cc="http://web.resource.org/cc/" xmlns:svg="http://www.w3.org/2000/svg" xmlns:xlink="http://www.w3.org/1999/xlink" id="svg6107" width="36.621" height="28.95" version="1.0"><defs id="defs6109"><linearGradient id="linearGradient30834"><stop id="stop30836" offset="0" stop-color="#cce6ff" stop-opacity=".451"/><stop id="stop31811" offset=".5" stop-color="#cce6ff" stop-opacity=".125"/><stop id="stop30838" offset="1" stop-color="#cce6ff" stop-opacity=".365"/></linearGradient><linearGradient id="linearGradient30840" x1="187.875" x2="215.906" y1="14.031" y2="14.031" gradientTransform="matrix(0.9732441,0,0,0.9732441,6.197251,1.3476898)" gradientUnits="userSpaceOnUse" xlink:href="#linearGradient30834"/><linearGradient id="linearGradient24017"><stop id="stop24019" offset="0" stop-color="#65a8c7" stop-opacity="1"/><stop id="stop24021" offset="1" stop-color="#93caff" stop-opacity="1"/></linearGradient><linearGradient id="linearGradient24023" x1="203.806" x2="217.375" y1="14.123" y2="7.906" gradientUnits="userSpaceOnUse" xlink:href="#linearGradient24017"/><linearGradient id="linearGradient23035"><stop id="stop23037" offset="0" stop-color="#ddefff" stop-opacity="1"/><stop id="stop23039" offset="1" stop-color="#93caff" stop-opacity="1"/></linearGradient><linearGradient id="linearGradient23043" x1="189.5" x2="203.915" y1="10.675" y2="19.397" gradientUnits="userSpaceOnUse" xlink:href="#linearGradient23035"/><linearGradient id="linearGradient24996"><stop id="stop24998" offset="0" stop-color="#4982b3" stop-opacity="1"/><stop id="stop25000" offset="1" stop-color="#82afd8" stop-opacity="1"/></linearGradient><linearGradient id="linearGradient25002" x1="203.642" x2="206.061" y1="14.023" y2="24.612" gradientUnits="userSpaceOnUse" xlink:href="#linearGradient24996"/><linearGradient id="linearGradient8473"><stop id="stop8475" offset="0" stop-color="#000" stop-opacity="1"/><stop id="stop8477" offset="1" stop-color="#000" stop-opacity="0"/></linearGradient><radialGradient id="radialGradient8479" cx="203.438" cy="13.312" r="13.938" fx="203.438" fy="13.312" gradientTransform="matrix(2.1271566,2.0570099,-0.6896015,0.7131178,-220.1256,-414.65384)" gradientUnits="userSpaceOnUse" xlink:href="#linearGradient8473"/><linearGradient id="linearGradient40457"><stop id="stop40459" offset="0" stop-color="#22253f" stop-opacity="1"/><stop id="stop40461" offset="1" stop-color="#373c66" stop-opacity="1"/></linearGradient><radialGradient id="radialGradient27917" cx="129.401" cy="14.258" r="17.957" fx="129.401" fy="14.258" gradientTransform="matrix(1,0,0,0.7817293,74.099457,3.7292034)" gradientUnits="userSpaceOnUse" xlink:href="#linearGradient40457"/><radialGradient id="radialGradient6153" cx="203.438" cy="13.312" r="13.938" fx="203.438" fy="13.312" gradientTransform="matrix(2.1271566,2.0570099,-0.6896015,0.7131178,-220.1256,-414.65384)" gradientUnits="userSpaceOnUse" xlink:href="#linearGradient8473"/><radialGradient id="radialGradient6155" cx="203.438" cy="13.312" r="13.938" fx="203.438" fy="13.312" gradientTransform="matrix(2.1271566,2.0570099,-0.6896015,0.7131178,-220.1256,-414.65384)" gradientUnits="userSpaceOnUse" xlink:href="#linearGradient8473"/><radialGradient id="radialGradient6157" cx="203.438" cy="13.312" r="13.938" fx="203.438" fy="13.312" gradientTransform="matrix(2.1271566,2.0570099,-0.6896015,0.7131178,-220.1256,-414.65384)" gradientUnits="userSpaceOnUse" xlink:href="#linearGradient8473"/></defs><metadata id="metadata6112"/><g id="layer1" transform="translate(-331.68942,-517.88715)"><g id="g6093" transform="translate(146.77144,517.92469)"><path id="path27911" fill="#000" fill-opacity="1" fill-rule="evenodd" stroke="#000" stroke-linecap="butt" stroke-linejoin="miter" stroke-opacity="1" stroke-width="1" d="M 195.18717,0.90440628 L 212.31062,0.90440628 L 221.03913,13.80259 L 221.03913,15.081289 L 212.36622,27.979473 L 195.13157,27.923877 L 186.12508,15.025693 L 186.12508,13.80259 L 195.18717,0.90440628 z"/><path id="path27913" fill="url(#radialGradient27917)" fill-opacity="1" fill-rule="evenodd" stroke="#000" stroke-linecap="butt" stroke-linejoin="miter" stroke-opacity="1" stroke-width="1" d="M 195.10506,1.3374643 L 212.22851,1.3374643 L 220.95703,14.235648 L 220.95703,15.514347 L 212.28411,28.412531 L 195.04947,28.356935 L 186.04298,15.458751 L 186.04298,14.235648 L 195.10506,1.3374643 z"/><g id="g7487" fill="url(#radialGradient8479)" fill-opacity="1" transform="translate(0.5628013,0.9453774)"><path id="path7489" fill="url(#radialGradient6153)" fill-opacity="1" fill-rule="evenodd" stroke="none" stroke-linecap="butt" stroke-linejoin="miter" stroke-opacity="1" stroke-width="1" d="M 212.80291,24.611673 L 203.95371,18.408205 L 195.69445,24.463972 L 203.91501,14.023159 L 212.80291,24.611673 z"/><path id="path7491" fill="url(#radialGradient6155)" fill-opacity="1" fill-rule="evenodd" stroke="none" stroke-linecap="butt" stroke-linejoin="miter" stroke-opacity="1" stroke-width="1" d="M 203.80622,2.0133225 L 203.91485,14.019973 L 195.69445,24.463972 L 198.79167,15.601874 L 189.5,11.170824 L 199.82408,10.284615 L 203.80622,2.0133225 z"/><path id="path7493" fill="url(#radialGradient6157)" fill-opacity="1" fill-rule="evenodd" stroke="none" stroke-linecap="butt" stroke-linejoin="miter" stroke-opacity="1" stroke-width="1" d="M 203.80622,2.0133225 L 207.19842,10.284615 L 217.375,10.875421 L 208.82077,15.158769 L 212.80291,24.611673 L 203.91395,14.027417 L 203.80622,2.0133225 z"/></g><path id="path27915" fill="none" fill-opacity="1" fill-rule="evenodd" stroke="#818eb8" stroke-linecap="butt" stroke-linejoin="miter" stroke-opacity="1" stroke-width="1" d="M 194.48006,0.46246418 L 211.60351,0.46246418 L 220.33203,13.360648 L 220.33203,14.639347 L 211.65911,27.537531 L 194.42447,27.481935 L 185.41798,14.583751 L 185.41798,13.360648 L 194.48006,0.46246418 z"/><g id="g7482"><path id="path21079" fill="url(#linearGradient25002)" fill-opacity="1" fill-rule="evenodd" stroke="none" stroke-linecap="butt" stroke-linejoin="miter" stroke-opacity="1" stroke-width="1" d="M 212.80291,24.611673 L 203.95371,18.408205 L 195.69445,24.463972 L 203.91501,14.023159 L 212.80291,24.611673 z"/><path id="path23046" fill="url(#linearGradient23043)" fill-opacity="1" fill-rule="evenodd" stroke="none" stroke-linecap="butt" stroke-linejoin="miter" stroke-opacity="1" stroke-width="1" d="M 203.80622,2.0133225 L 203.91485,14.019973 L 195.69445,24.463972 L 198.79167,15.601874 L 189.5,11.170824 L 199.82408,10.284615 L 203.80622,2.0133225 z"/><path id="path24025" fill="url(#linearGradient24023)" fill-opacity="1" fill-rule="evenodd" stroke="none" stroke-linecap="butt" stroke-linejoin="miter" stroke-opacity="1" stroke-width="1" d="M 203.80622,2.0133225 L 207.19842,10.284615 L 217.375,10.875421 L 208.82077,15.158769 L 212.80291,24.611673 L 203.91395,14.027417 L 203.80622,2.0133225 z"/></g><path id="path29863" fill="url(#linearGradient30840)" fill-opacity="1" fill-rule="evenodd" stroke="none" stroke-linecap="butt" stroke-linejoin="miter" stroke-opacity="1" stroke-width="1" d="M 192.26937,6.4268054 L 212.61626,27.442797 L 215.1777,22.736233 L 195.46283,1.8647234 L 192.26937,6.4268054 z M 209.11866,28.142316 L 190.68785,8.7078463 L 189.0455,11.080129 L 204.25244,28.111902 L 209.11866,28.142316 z"/></g></g></svg>