<svg xmlns="http://www.w3.org/2000/svg" xmlns:cc="http://web.resource.org/cc/" xmlns:svg="http://www.w3.org/2000/svg" xmlns:xlink="http://www.w3.org/1999/xlink" id="svg5586" width="36.47" height="28.866" version="1.0"><defs id="defs5588"><linearGradient id="linearGradient8186" x1="169.023" x2="175.908" y1="13.381" y2="13.381" gradientTransform="matrix(1,0,0,1.0201923,0,-0.1608163)" gradientUnits="userSpaceOnUse" xlink:href="#linearGradient8180"/><linearGradient id="linearGradient10169" x1="188.187" x2="191.687" y1="10.375" y2="10.375" gradientUnits="userSpaceOnUse" xlink:href="#linearGradient8180"/><linearGradient id="linearGradient10167" x1="188.187" x2="191.687" y1="10.375" y2="10.375" gradientUnits="userSpaceOnUse" xlink:href="#linearGradient8180"/><linearGradient id="linearGradient10165" x1="188.187" x2="191.687" y1="10.375" y2="10.375" gradientUnits="userSpaceOnUse" xlink:href="#linearGradient8180"/><linearGradient id="linearGradient8180"><stop id="stop8182" offset="0" stop-color="#1b99ac" stop-opacity="1"/><stop id="stop8184" offset="1" stop-color="#14707e" stop-opacity="1"/></linearGradient><linearGradient id="linearGradient10175" x1="198.874" x2="209.281" y1="24.687" y2="24.687" gradientTransform="matrix(-2.3167138,0,0,1.9763891,638.29703,-30.675892)" gradientUnits="userSpaceOnUse" xlink:href="#linearGradient8180"/><linearGradient id="linearGradient9162"><stop id="stop9164" offset="0" stop-color="#07425a" stop-opacity="1"/><stop id="stop9166" offset="1" stop-color="#0a5f81" stop-opacity="1"/></linearGradient><radialGradient id="radialGradient9170" cx="169.5" cy="17.375" r="17.957" fx="169.5" fy="17.375" gradientTransform="matrix(1,0,0,0.7817294,-2.950694,1.289089)" gradientUnits="userSpaceOnUse" xlink:href="#linearGradient9162"/></defs><metadata id="metadata5591"/><g id="layer1" transform="translate(-457.47927,-417.66152)"><g id="g5536" transform="translate(309.44298,417.61796)"><path id="path8189" fill="url(#radialGradient9170)" fill-opacity="1" fill-rule="evenodd" stroke="#000" stroke-linecap="butt" stroke-linejoin="miter" stroke-opacity="1" stroke-width="1" d="M 158.15435,1.334103 L 175.2778,1.334103 L 184.00632,14.232287 L 184.00632,15.510986 L 175.3334,28.40917 L 158.09876,28.353574 L 149.09227,15.45539 L 149.09227,14.232287 L 158.15435,1.334103 z"/><g id="g10215" fill="none" stroke="#000" stroke-opacity="1" transform="translate(0.555332,0.7905433)"><path id="path10217" fill="none" fill-opacity="1" fill-rule="evenodd" stroke="#000" stroke-dasharray="none" stroke-linecap="butt" stroke-linejoin="miter" stroke-miterlimit="4" stroke-opacity="1" stroke-width="1" d="M 173.72352,15.089869 L 157.21693,15.336919 C 154.8012,15.373073 154.04954,17.158902 154.03145,18.177977 C 154.00566,19.629302 155.14593,21.150138 157.14454,21.142561 L 173.43393,21.0808 C 176.039,21.070921 176.909,19.598507 176.9814,17.992691 C 177.04817,16.511495 175.35664,15.065426 173.72352,15.089869 z"/></g><g id="g10177"><path id="path9172" fill="url(#linearGradient10175)" fill-opacity="1" fill-rule="evenodd" stroke="#0ff" stroke-dasharray="none" stroke-linecap="butt" stroke-linejoin="miter" stroke-miterlimit="4" stroke-opacity="1" stroke-width="1" d="M 173.72352,15.089869 L 157.21693,15.336919 C 154.8012,15.373073 154.04954,17.158902 154.03145,18.177977 C 154.00566,19.629302 155.14593,21.150138 157.14454,21.142561 L 173.43393,21.0808 C 176.039,21.070921 176.909,19.598507 176.9814,17.992691 C 177.04817,16.511495 175.35664,15.065426 173.72352,15.089869 z"/><path id="path9174" fill="url(#linearGradient10165)" fill-opacity="1" fill-rule="evenodd" stroke="#0ff" stroke-dasharray="none" stroke-dashoffset="0" stroke-linecap="butt" stroke-linejoin="bevel" stroke-miterlimit="4" stroke-opacity="1" stroke-width=".467" d="M 191.43748 10.37501 A 1.4999999 1.4999999 0 1 1 188.43748,10.37501 A 1.4999999 1.4999999 0 1 1 191.43748 10.37501 z" transform="matrix(-2.3167138,0,0,1.9763891,613.53716,-2.4175165)"/><path id="path9176" fill="url(#linearGradient10167)" fill-opacity="1" fill-rule="evenodd" stroke="#0ff" stroke-dasharray="none" stroke-dashoffset="0" stroke-linecap="butt" stroke-linejoin="bevel" stroke-miterlimit="4" stroke-opacity="1" stroke-width=".557" d="M 191.43748 10.37501 A 1.4999999 1.4999999 0 1 1 188.43748,10.37501 A 1.4999999 1.4999999 0 1 1 191.43748 10.37501 z" transform="matrix(-1.9443848,0,0,1.6587551,534.70943,0.9066283)"/><path id="path9178" fill="url(#linearGradient10169)" fill-opacity="1" fill-rule="evenodd" stroke="#0ff" stroke-dasharray="none" stroke-dashoffset="0" stroke-linecap="butt" stroke-linejoin="bevel" stroke-miterlimit="4" stroke-opacity="1" stroke-width=".467" d="M 191.43748 10.37501 A 1.4999999 1.4999999 0 1 1 188.43748,10.37501 A 1.4999999 1.4999999 0 1 1 191.43748 10.37501 z" transform="matrix(-2.3167138,0,0,1.9763891,597.60974,-2.2652893)"/></g><path id="path6934" fill="none" fill-opacity="1" fill-rule="evenodd" stroke="#818eb8" stroke-linecap="butt" stroke-linejoin="miter" stroke-opacity="1" stroke-width="1" d="M 157.59837,0.54355907 L 174.72182,0.54355907 L 183.45034,13.441743 L 183.45034,14.720442 L 174.77742,27.618626 L 157.54278,27.56303 L 148.53629,14.664846 L 148.53629,13.441743 L 157.59837,0.54355907 z"/><g id="g11202"><g id="g7191" stroke="#0ff" stroke-opacity="1" transform="translate(4.4194174e-2,0.1325825)"><path id="path7081" fill="#73f39b" fill-opacity="1" fill-rule="evenodd" stroke="#0ff" stroke-linecap="square" stroke-linejoin="miter" stroke-opacity="1" stroke-width="1" d="M 168.38211,8.387245 L 168.46495,8.3911513"/><path id="path7085" fill="#73f39b" fill-opacity="1" fill-rule="evenodd" stroke="#0ff" stroke-linecap="square" stroke-linejoin="miter" stroke-opacity="1" stroke-width="1" d="M 168.38398,10.37162 L 168.46682,10.375526"/><path id="path7089" fill="#73f39b" fill-opacity="1" fill-rule="evenodd" stroke="#0ff" stroke-linecap="square" stroke-linejoin="miter" stroke-opacity="1" stroke-width="1" d="M 168.38211,12.387245 L 168.46495,12.391151"/><path id="path7093" fill="#73f39b" fill-opacity="1" fill-rule="evenodd" stroke="#0ff" stroke-linecap="square" stroke-linejoin="miter" stroke-opacity="1" stroke-width="1" d="M 168.38211,14.387245 L 168.46495,14.391151"/><path id="path7097" fill="#73f39b" fill-opacity="1" fill-rule="evenodd" stroke="#0ff" stroke-linecap="square" stroke-linejoin="miter" stroke-opacity="1" stroke-width="1" d="M 168.38398,16.37162 L 168.46682,16.375526"/><path id="path7101" fill="#73f39b" fill-opacity="1" fill-rule="evenodd" stroke="#0ff" stroke-linecap="square" stroke-linejoin="miter" stroke-opacity="1" stroke-width="1" d="M 168.38211,18.387245 L 168.46495,18.391151"/></g><g id="g7107" fill="none" fill-opacity="1" stroke="#0ff" stroke-opacity="1" transform="matrix(9.4253385e-2,0,0,1,167.33367,5.9795397)"><path id="path7109" fill="none" fill-opacity="1" fill-rule="evenodd" stroke="#0ff" stroke-linecap="square" stroke-linejoin="miter" stroke-opacity="1" stroke-width="3.257" d="M 98.570313,2.4960937 L 96.492188,2.5"/><path id="path7111" fill="none" fill-opacity="1" fill-rule="evenodd" stroke="#0ff" stroke-linecap="square" stroke-linejoin="miter" stroke-opacity="1" stroke-width="3.257" d="M 98.523438,4.4804687 L 96.445313,4.484375"/><path id="path7113" fill="none" fill-opacity="1" fill-rule="evenodd" stroke="#0ff" stroke-linecap="square" stroke-linejoin="miter" stroke-opacity="1" stroke-width="3.257" d="M 98.570313,6.4960937 L 96.492188,6.5"/><path id="path7115" fill="none" fill-opacity="1" fill-rule="evenodd" stroke="#0ff" stroke-linecap="square" stroke-linejoin="miter" stroke-opacity="1" stroke-width="3.257" d="M 98.570313,8.496094 L 96.492188,8.5"/><path id="path7117" fill="none" fill-opacity="1" fill-rule="evenodd" stroke="#0ff" stroke-linecap="square" stroke-linejoin="miter" stroke-opacity="1" stroke-width="3.257" d="M 98.523438,10.480469 L 96.445313,10.484375"/><path id="path7119" fill="none" fill-opacity="1" fill-rule="evenodd" stroke="#0ff" stroke-linecap="square" stroke-linejoin="miter" stroke-opacity="1" stroke-width="3.257" d="M 98.570313,12.496094 L 96.492188,12.5"/></g><rect id="rect7123" width="6.886" height="11.052" x="169.023" y="7.964" fill="url(#linearGradient8186)" fill-opacity="1" fill-rule="evenodd" stroke="none" stroke-dasharray="none" stroke-dashoffset="0" stroke-linecap="square" stroke-linejoin="miter" stroke-miterlimit="4" stroke-opacity="1" stroke-width="1"/><rect id="rect7125" width="4.193" height="8.698" x="170.325" y="9.048" fill="none" fill-opacity="1" fill-rule="evenodd" stroke="#0ff" stroke-dasharray="none" stroke-dashoffset="0" stroke-linecap="square" stroke-linejoin="miter" stroke-miterlimit="4" stroke-opacity="1" stroke-width="1"/><g id="g10183" fill="none" fill-opacity="1" stroke="#0e84b4" stroke-opacity="1" transform="matrix(9.4253385e-2,0,0,1,167.34081,7.001953)"><path id="path10185" fill="none" fill-opacity="1" fill-rule="evenodd" stroke="#0e84b4" stroke-linecap="square" stroke-linejoin="miter" stroke-opacity="1" stroke-width="3.257" d="M 98.570313,2.4960937 L 96.492188,2.5"/><path id="path10187" fill="none" fill-opacity="1" fill-rule="evenodd" stroke="#0e84b4" stroke-linecap="square" stroke-linejoin="miter" stroke-opacity="1" stroke-width="3.257" d="M 98.523438,4.4804687 L 96.445313,4.484375"/><path id="path10189" fill="none" fill-opacity="1" fill-rule="evenodd" stroke="#0e84b4" stroke-linecap="square" stroke-linejoin="miter" stroke-opacity="1" stroke-width="3.257" d="M 98.570313,6.4960937 L 96.492188,6.5"/><path id="path10191" fill="none" fill-opacity="1" fill-rule="evenodd" stroke="#0e84b4" stroke-linecap="square" stroke-linejoin="miter" stroke-opacity="1" stroke-width="3.257" d="M 98.570313,8.496094 L 96.492188,8.5"/><path id="path10193" fill="none" fill-opacity="1" fill-rule="evenodd" stroke="#0e84b4" stroke-linecap="square" stroke-linejoin="miter" stroke-opacity="1" stroke-width="3.257" d="M 98.523438,10.480469 L 96.445313,10.484375"/><path id="path10195" fill="none" fill-opacity="1" fill-rule="evenodd" stroke="#0e84b4" stroke-linecap="square" stroke-linejoin="miter" stroke-opacity="1" stroke-width="3.257" d="M 98.570313,12.496094 L 96.492188,12.5"/></g><g id="g10197" fill="none" fill-opacity="1" stroke="#0e84b4" stroke-opacity="1" transform="matrix(9.4253385e-2,0,0,1,159.24706,7.001953)"><path id="path10199" fill="none" fill-opacity="1" fill-rule="evenodd" stroke="#0e84b4" stroke-linecap="square" stroke-linejoin="miter" stroke-opacity="1" stroke-width="3.257" d="M 98.570313,2.4960937 L 96.492188,2.5"/><path id="path10201" fill="none" fill-opacity="1" fill-rule="evenodd" stroke="#0e84b4" stroke-linecap="square" stroke-linejoin="miter" stroke-opacity="1" stroke-width="3.257" d="M 98.523438,4.4804687 L 96.445313,4.484375"/><path id="path10203" fill="none" fill-opacity="1" fill-rule="evenodd" stroke="#0e84b4" stroke-linecap="square" stroke-linejoin="miter" stroke-opacity="1" stroke-width="3.257" d="M 98.570313,6.4960937 L 96.492188,6.5"/><path id="path10205" fill="none" fill-opacity="1" fill-rule="evenodd" stroke="#0e84b4" stroke-linecap="square" stroke-linejoin="miter" stroke-opacity="1" stroke-width="3.257" d="M 98.570313,8.496094 L 96.492188,8.5"/><path id="path10207" fill="none" fill-opacity="1" fill-rule="evenodd" stroke="#0e84b4" stroke-linecap="square" stroke-linejoin="miter" stroke-opacity="1" stroke-width="3.257" d="M 98.523438,10.480469 L 96.445313,10.484375"/><path id="path10209" fill="none" fill-opacity="1" fill-rule="evenodd" stroke="#0e84b4" stroke-linecap="square" stroke-linejoin="miter" stroke-opacity="1" stroke-width="3.257" d="M 98.570313,12.496094 L 96.492188,12.5"/></g><rect id="rect10211" width="6.886" height="1.021" x="169.026" y="18.911" fill="#0e84b4" fill-opacity="1" fill-rule="evenodd" stroke="none" stroke-dasharray="none" stroke-dashoffset="0" stroke-linecap="square" stroke-linejoin="miter" stroke-miterlimit="4" stroke-opacity="1" stroke-width="1"/></g><path id="path12270" fill="none" fill-rule="evenodd" stroke="#000" stroke-linecap="square" stroke-linejoin="miter" stroke-opacity="1" stroke-width="1" d="M 169.39062,20.453125 L 177.625,20.484375 L 177.59375,9.46875"/><path id="path14222" fill="none" fill-opacity="1" fill-rule="evenodd" stroke="#000" stroke-dasharray="none" stroke-dashoffset="0" stroke-linecap="square" stroke-linejoin="miter" stroke-miterlimit="4" stroke-opacity="1" stroke-width="1.231" d="M 168.25 202.5625 A 2.4375 4.0625 0 1 1 163.375,202.5625 A 2.4375 4.0625 0 1 1 168.25 202.5625 z" opacity="1" transform="matrix(0.7190083,0,0,0.9178345,38.344519,-174.56685)"/><path id="path14224" fill="none" fill-opacity="1" fill-rule="evenodd" stroke="#000" stroke-dasharray="none" stroke-dashoffset="0" stroke-linecap="square" stroke-linejoin="miter" stroke-miterlimit="4" stroke-opacity="1" stroke-width="1.231" d="M 168.25 202.5625 A 2.4375 4.0625 0 1 1 163.375,202.5625 A 2.4375 4.0625 0 1 1 168.25 202.5625 z" opacity="1" transform="matrix(0.7190083,0,0,0.9178345,42.029436,-174.45212)"/><path id="path13247" fill="#0ff" fill-opacity="1" fill-rule="evenodd" stroke="#009192" stroke-dasharray="none" stroke-dashoffset="0" stroke-linecap="square" stroke-linejoin="miter" stroke-miterlimit="4" stroke-opacity="1" stroke-width="1.231" d="M 168.25 202.5625 A 2.4375 4.0625 0 1 1 163.375,202.5625 A 2.4375 4.0625 0 1 1 168.25 202.5625 z" opacity="1" transform="matrix(0.7190083,0,0,0.9178345,37.719526,-175.45619)"/><path id="path14226" fill="none" fill-opacity="1" fill-rule="evenodd" stroke="#000" stroke-dasharray="none" stroke-dashoffset="0" stroke-linecap="square" stroke-linejoin="miter" stroke-miterlimit="4" stroke-opacity="1" stroke-width="1.231" d="M 168.25 202.5625 A 2.4375 4.0625 0 1 1 163.375,202.5625 A 2.4375 4.0625 0 1 1 168.25 202.5625 z" opacity="1" transform="matrix(0.7190083,0,0,0.9178345,45.714353,-174.45212)"/><path id="path13249" fill="#0ff" fill-opacity="1" fill-rule="evenodd" stroke="#009192" stroke-dasharray="none" stroke-dashoffset="0" stroke-linecap="square" stroke-linejoin="miter" stroke-miterlimit="4" stroke-opacity="1" stroke-width="1.231" d="M 168.25 202.5625 A 2.4375 4.0625 0 1 1 163.375,202.5625 A 2.4375 4.0625 0 1 1 168.25 202.5625 z" opacity="1" transform="matrix(0.7190083,0,0,0.9178345,41.404443,-175.34146)"/><path id="path13251" fill="#0ff" fill-opacity="1" fill-rule="evenodd" stroke="#009192" stroke-dasharray="none" stroke-dashoffset="0" stroke-linecap="square" stroke-linejoin="miter" stroke-miterlimit="4" stroke-opacity="1" stroke-width="1.231" d="M 168.25 202.5625 A 2.4375 4.0625 0 1 1 163.375,202.5625 A 2.4375 4.0625 0 1 1 168.25 202.5625 z" opacity="1" transform="matrix(0.7190083,0,0,0.9178345,45.08936,-175.34146)"/></g></g></svg>