<svg xmlns="http://www.w3.org/2000/svg" xmlns:cc="http://web.resource.org/cc/" xmlns:svg="http://www.w3.org/2000/svg" xmlns:xlink="http://www.w3.org/1999/xlink" id="svg5433" width="36.621" height="28.95" version="1.0"><defs id="defs5435"><linearGradient id="linearGradient5425" x1="121" x2="125.875" y1="34.307" y2="41.12" gradientUnits="userSpaceOnUse" xlink:href="#linearGradient11941"/><linearGradient id="linearGradient9973" x1="129.938" x2="131.75" y1="44.438" y2="42.625" gradientUnits="userSpaceOnUse" xlink:href="#linearGradient11941"/><linearGradient id="linearGradient11941"><stop id="stop11943" offset="0" stop-color="#d7ab3f" stop-opacity="1"/><stop id="stop11949" offset=".608" stop-color="#d7ab3f" stop-opacity="1"/><stop id="stop11945" offset="1" stop-color="#6c5316" stop-opacity="1"/></linearGradient><linearGradient id="linearGradient5423" x1="116.813" x2="121.563" y1="41.063" y2="45.438" gradientUnits="userSpaceOnUse" xlink:href="#linearGradient11941"/><linearGradient id="linearGradient15838"><stop id="stop15840" offset="0" stop-color="#3e2911" stop-opacity="1"/><stop id="stop15842" offset="1" stop-color="#5f3f1b" stop-opacity="1"/></linearGradient><radialGradient id="radialGradient15092" cx="129.401" cy="14.258" r="17.957" fx="129.401" fy="14.258" gradientTransform="matrix(1,0,0,0.7817293,0.6875,3.9870742)" gradientUnits="userSpaceOnUse" xlink:href="#linearGradient15838"/></defs><metadata id="metadata5438"/><g id="layer1" transform="translate(-664.54657,-623.60144)"><g id="g5410" transform="translate(553.10305,623.3811)"><path id="path15847" fill="#000" fill-opacity="1" fill-rule="evenodd" stroke="#000" stroke-linecap="butt" stroke-linejoin="miter" stroke-opacity="1" stroke-width="1" d="M 121.71271,1.1622771 L 138.83616,1.1622771 L 147.56467,14.060461 L 147.56467,15.33916 L 138.89176,28.237344 L 121.65711,28.181748 L 112.65062,15.283564 L 112.65062,14.060461 L 121.71271,1.1622771 z"/><path id="path14121" fill="url(#radialGradient15092)" fill-opacity="1" fill-rule="evenodd" stroke="#000" stroke-linecap="butt" stroke-linejoin="miter" stroke-opacity="1" stroke-width="1" d="M 121.6931,1.5953351 L 138.81655,1.5953351 L 147.54507,14.493519 L 147.54507,15.772218 L 138.87215,28.670402 L 121.63751,28.614806 L 112.63102,15.716622 L 112.63102,14.493519 L 121.6931,1.5953351 z"/><path id="path14860" fill="none" fill-opacity="1" fill-rule="evenodd" stroke="#818eb8" stroke-linecap="butt" stroke-linejoin="miter" stroke-opacity="1" stroke-width="1" d="M 121.0056,0.72033504 L 138.12905,0.72033504 L 146.85757,13.618519 L 146.85757,14.897218 L 138.18465,27.795402 L 120.95001,27.739806 L 111.94352,14.841622 L 111.94352,13.618519 L 121.0056,0.72033504 z"/><g id="g9955" fill="#000" fill-opacity="1" transform="translate(1.0131358,-28.770805)"><path id="path9957" fill="#000" fill-opacity="1" fill-rule="evenodd" stroke="none" stroke-linecap="butt" stroke-linejoin="miter" stroke-opacity="1" stroke-width="1" d="M 115.0625,42.25 L 119,45.8125 L 122.5,42.8125 L 118.375,39.5625 L 115.0625,42.25 z"/><path id="path9959" fill="#000" fill-opacity="1" fill-rule="evenodd" stroke="none" stroke-linecap="butt" stroke-linejoin="miter" stroke-opacity="1" stroke-width="1" d="M 119.25,35.625 L 121,36.25 L 137.0625,51.625 L 139.25,49.75 L 122.75,34.5 L 122.375,32.875 L 119.25,35.625 z"/><path id="path9961" fill="#000" fill-opacity="1" fill-rule="evenodd" stroke="none" stroke-linecap="butt" stroke-linejoin="miter" stroke-opacity="1" stroke-width="1" d="M 118.375,39.9375 C 118.375,39.9375 125.01128,32.357058 126.75,32 C 128.5,31.640625 129.375,31.75 131.375,32.5 C 133.375,33.25 134.75,35 134.75,35 C 134.75,35 131.76562,34.390625 130.4375,34.8125 C 129.09015,35.240483 121.9375,42.4375 121.9375,42.4375 L 118.375,39.9375 z"/></g><g id="g9963" transform="translate(-0.2368642,-29.145805)"><path id="path9965" fill="url(#linearGradient5423)" fill-opacity="1" fill-rule="evenodd" stroke="none" stroke-linecap="butt" stroke-linejoin="miter" stroke-opacity="1" stroke-width="1" d="M 115.0625,42.25 L 119,45.8125 L 122.125,42.375 L 118.375,39.5625 L 115.0625,42.25 z"/><path id="path9967" fill="url(#linearGradient9973)" fill-opacity="1" fill-rule="evenodd" stroke="none" stroke-linecap="butt" stroke-linejoin="miter" stroke-opacity="1" stroke-width="1" d="M 119.75,35.4375 L 121,36.25 L 137.0625,51.625 L 139.25,49.75 L 122.75,34.5 L 121.8125,33.375 L 119.75,35.4375 z"/><path id="path9969" fill="url(#linearGradient5425)" fill-opacity="1" fill-rule="evenodd" stroke="none" stroke-linecap="butt" stroke-linejoin="miter" stroke-opacity="1" stroke-width="1" d="M 118.375,39.9375 C 118.375,39.9375 125.01128,32.357058 126.75,32 C 128.5,31.640625 129.375,31.75 131.375,32.5 C 133.375,33.25 134.75,35 134.75,35 C 134.75,35 131.76562,34.390625 130.4375,34.8125 C 129.09015,35.240483 121.9375,42.4375 121.9375,42.4375 L 118.375,39.9375 z"/></g></g></g></svg>