<svg xmlns="http://www.w3.org/2000/svg" xmlns:cc="http://web.resource.org/cc/" xmlns:svg="http://www.w3.org/2000/svg" xmlns:xlink="http://www.w3.org/1999/xlink" id="svg3350" width="28.013" height="20.663" version="1.0"><defs id="defs3352"><linearGradient id="linearGradient12570" x1="41.955" x2="47.096" y1="18.545" y2="18.545" gradientUnits="userSpaceOnUse" xlink:href="#linearGradient8263"/><linearGradient id="linearGradient12568" x1="79.006" x2="89.964" y1="11.881" y2="11.881" gradientTransform="translate(-40.003562,1.1265562)" gradientUnits="userSpaceOnUse" xlink:href="#linearGradient8263"/><linearGradient id="linearGradient12566" x1="42.15" x2="47.027" y1="7.78" y2="7.78" gradientTransform="matrix(1.0012945,0,0,0.9761982,-5.7721371e-2,0.1188959)" gradientUnits="userSpaceOnUse" xlink:href="#linearGradient8263"/><linearGradient id="linearGradient12556" x1="41.955" x2="47.096" y1="18.545" y2="18.545" gradientUnits="userSpaceOnUse" xlink:href="#linearGradient8263"/><linearGradient id="linearGradient12554" x1="79.006" x2="89.964" y1="11.881" y2="11.881" gradientTransform="translate(-40.003562,1.1265562)" gradientUnits="userSpaceOnUse" xlink:href="#linearGradient8263"/><linearGradient id="linearGradient12552" x1="42.15" x2="47.027" y1="7.78" y2="7.78" gradientTransform="matrix(1.0012945,0,0,0.9761982,-5.7721371e-2,0.1188959)" gradientUnits="userSpaceOnUse" xlink:href="#linearGradient8263"/><linearGradient id="linearGradient12542" x1="41.955" x2="47.096" y1="18.545" y2="18.545" gradientUnits="userSpaceOnUse" xlink:href="#linearGradient8263"/><linearGradient id="linearGradient12540" x1="79.006" x2="89.964" y1="11.881" y2="11.881" gradientTransform="translate(-40.003562,1.1265562)" gradientUnits="userSpaceOnUse" xlink:href="#linearGradient8263"/><linearGradient id="linearGradient12538" x1="42.15" x2="47.027" y1="7.78" y2="7.78" gradientTransform="matrix(1.0012945,0,0,0.9761982,-5.7721371e-2,0.1188959)" gradientUnits="userSpaceOnUse" xlink:href="#linearGradient8263"/><linearGradient id="linearGradient12523" x1="41.955" x2="47.096" y1="18.545" y2="18.545" gradientUnits="userSpaceOnUse" xlink:href="#linearGradient8263"/><linearGradient id="linearGradient9594" x1="79.006" x2="89.964" y1="11.881" y2="11.881" gradientTransform="translate(-40.003562,1.1265562)" gradientUnits="userSpaceOnUse" xlink:href="#linearGradient8263"/><linearGradient id="linearGradient8263"><stop id="stop8265" offset="0" stop-color="#a4faf7" stop-opacity="1"/><stop id="stop8267" offset="1" stop-color="#0a827d" stop-opacity="1"/></linearGradient><linearGradient id="linearGradient10575" x1="42.15" x2="47.027" y1="7.78" y2="7.78" gradientTransform="matrix(1.0012945,0,0,0.9761982,-5.7721371e-2,0.1188959)" gradientUnits="userSpaceOnUse" xlink:href="#linearGradient8263"/></defs><metadata id="metadata3355"/><g id="layer1" transform="translate(-620.27898,-750.60222)"><path id="path8601" fill="#a4faf7" fill-opacity="1" fill-rule="evenodd" stroke="#000" stroke-dasharray="none" stroke-dashoffset="0" stroke-linecap="butt" stroke-linejoin="bevel" stroke-miterlimit="4" stroke-opacity="1" stroke-width=".5" d="M 46.25 7.1250005 A 1.9375 1.9375 0 1 1 42.375,7.1250005 A 1.9375 1.9375 0 1 1 46.25 7.1250005 z" transform="translate(586.91739,747.76375)"/><path id="path12690" fill="#000" fill-opacity="1" fill-rule="evenodd" stroke="#000" stroke-dasharray="none" stroke-dashoffset="0" stroke-linecap="butt" stroke-linejoin="bevel" stroke-miterlimit="4" stroke-opacity="1" stroke-width=".5" d="M 46.25 7.1250005 A 1.9375 1.9375 0 1 1 42.375,7.1250005 A 1.9375 1.9375 0 1 1 46.25 7.1250005 z" transform="translate(587.18073,748.17404)"/><path id="path8603" fill="#a4faf7" fill-opacity="1" fill-rule="evenodd" stroke="#000" stroke-dasharray="none" stroke-dashoffset="0" stroke-linecap="butt" stroke-linejoin="bevel" stroke-miterlimit="4" stroke-opacity="1" stroke-width=".5" d="M 46.25 7.1250005 A 1.9375 1.9375 0 1 1 42.375,7.1250005 A 1.9375 1.9375 0 1 1 46.25 7.1250005 z" transform="translate(592.97989,746.76375)"/><path id="path12692" fill="#000" fill-opacity="1" fill-rule="evenodd" stroke="#000" stroke-dasharray="none" stroke-dashoffset="0" stroke-linecap="butt" stroke-linejoin="bevel" stroke-miterlimit="4" stroke-opacity="1" stroke-width=".5" d="M 46.25 7.1250005 A 1.9375 1.9375 0 1 1 42.375,7.1250005 A 1.9375 1.9375 0 1 1 46.25 7.1250005 z" transform="translate(593.24323,747.17404)"/><path id="path8605" fill="#a4faf7" fill-opacity="1" fill-rule="evenodd" stroke="#000" stroke-dasharray="none" stroke-dashoffset="0" stroke-linecap="butt" stroke-linejoin="bevel" stroke-miterlimit="4" stroke-opacity="1" stroke-width=".5" d="M 46.25 7.1250005 A 1.9375 1.9375 0 1 1 42.375,7.1250005 A 1.9375 1.9375 0 1 1 46.25 7.1250005 z" transform="translate(598.91739,745.70125)"/><g id="g12694" fill="#000" fill-opacity="1" stroke="#000" stroke-opacity="1" transform="translate(599.03765,746.14823)"><path id="path12696" fill="#000" fill-opacity="1" fill-rule="evenodd" stroke="#000" stroke-dasharray="none" stroke-dashoffset="0" stroke-linecap="butt" stroke-linejoin="bevel" stroke-miterlimit="4" stroke-opacity="1" stroke-width=".494" d="M 44.588388,5.1114434 C 43.382063,5.1114434 42.326801,6.0729072 42.398056,7.2468768 C 42.486502,8.7040786 43.586575,8.2006725 43.704622,10.265607 C 44.154054,10.283919 45.38309,10.336595 45.339401,10.308749 C 45.467814,8.1773981 46.758816,8.76817 46.77872,7.2468768 C 46.794107,6.0708326 45.794714,5.1114434 44.588388,5.1114434 z"/><path id="path12698" fill="#000" fill-opacity="1" fill-rule="evenodd" stroke="#000" stroke-dasharray="none" stroke-linecap="butt" stroke-linejoin="miter" stroke-miterlimit="4" stroke-opacity="1" stroke-width=".5" d="M 39.799092,16.48928 L 41.519524,16.48928 L 41.740494,12.566722 L 42.141383,14.651431 L 46.834848,14.739819 L 47.27679,12.618499 L 47.633485,16.525892 L 49.004805,16.515169 C 49.004805,16.515169 48.459793,12.541135 48.460611,11.932838 C 48.46165,11.182286 48.302071,10.374237 47.302028,10.390484 C 47.257026,10.391199 42.267042,10.327905 41.468397,10.368387 C 40.426259,10.42121 40.428191,11.006963 40.270062,11.958727 C 40.088372,13.0523 39.799092,16.48928 39.799092,16.48928 z"/><path id="path12700" fill="#000" fill-opacity="1" fill-rule="evenodd" stroke="#000" stroke-dasharray="none" stroke-linecap="butt" stroke-linejoin="miter" stroke-miterlimit="4" stroke-opacity="1" stroke-width=".5" d="M 42.24963,21.903462 L 42.161242,14.655618 L 46.80163,14.699812 L 46.80163,21.815074 L 45.21064,21.859268 L 45.21064,16.953714 L 43.796426,16.953713 L 43.752231,21.859268 L 42.24963,21.903462 z"/></g><g id="g12558" transform="translate(598.7743,745.73794)"><path id="path12560" fill="url(#linearGradient12566)" fill-opacity="1" fill-rule="evenodd" stroke="#107470" stroke-dasharray="none" stroke-dashoffset="0" stroke-linecap="butt" stroke-linejoin="bevel" stroke-miterlimit="4" stroke-opacity="1" stroke-width=".494" d="M 44.588388,5.1114434 C 43.382063,5.1114434 42.326801,6.0729072 42.398056,7.2468768 C 42.486502,8.7040786 43.586575,8.2006725 43.704622,10.265607 C 44.154054,10.283919 45.38309,10.336595 45.339401,10.308749 C 45.467814,8.1773981 46.758816,8.76817 46.77872,7.2468768 C 46.794107,6.0708326 45.794714,5.1114434 44.588388,5.1114434 z"/><path id="path12562" fill="url(#linearGradient12568)" fill-opacity="1" fill-rule="evenodd" stroke="#107470" stroke-dasharray="none" stroke-linecap="butt" stroke-linejoin="miter" stroke-miterlimit="4" stroke-opacity="1" stroke-width=".5" d="M 39.799092,16.48928 L 41.519524,16.48928 L 41.740494,12.566722 L 42.141383,14.651431 L 46.834848,14.739819 L 47.27679,12.618499 L 47.633485,16.525892 L 49.004805,16.515169 C 49.004805,16.515169 48.459793,12.541135 48.460611,11.932838 C 48.46165,11.182286 48.302071,10.374237 47.302028,10.390484 C 47.257026,10.391199 42.267042,10.327905 41.468397,10.368387 C 40.426259,10.42121 40.428191,11.006963 40.270062,11.958727 C 40.088372,13.0523 39.799092,16.48928 39.799092,16.48928 z"/><path id="path12564" fill="url(#linearGradient12570)" fill-opacity="1" fill-rule="evenodd" stroke="#107470" stroke-dasharray="none" stroke-linecap="butt" stroke-linejoin="miter" stroke-miterlimit="4" stroke-opacity="1" stroke-width=".5" d="M 42.24963,21.903462 L 42.161242,14.655618 L 46.80163,14.699812 L 46.80163,21.815074 L 45.21064,21.859268 L 45.21064,16.953714 L 43.796426,16.953713 L 43.752231,21.859268 L 42.24963,21.903462 z"/></g><g id="g12702" fill="#000" fill-opacity="1" stroke="#000" stroke-opacity="1" transform="translate(593.11563,747.20889)"><path id="path12704" fill="#000" fill-opacity="1" fill-rule="evenodd" stroke="#000" stroke-dasharray="none" stroke-dashoffset="0" stroke-linecap="butt" stroke-linejoin="bevel" stroke-miterlimit="4" stroke-opacity="1" stroke-width=".494" d="M 44.588388,5.1114434 C 43.382063,5.1114434 42.326801,6.0729072 42.398056,7.2468768 C 42.486502,8.7040786 43.586575,8.2006725 43.704622,10.265607 C 44.154054,10.283919 45.38309,10.336595 45.339401,10.308749 C 45.467814,8.1773981 46.758816,8.76817 46.77872,7.2468768 C 46.794107,6.0708326 45.794714,5.1114434 44.588388,5.1114434 z"/><path id="path12706" fill="#000" fill-opacity="1" fill-rule="evenodd" stroke="#000" stroke-dasharray="none" stroke-linecap="butt" stroke-linejoin="miter" stroke-miterlimit="4" stroke-opacity="1" stroke-width=".5" d="M 39.799092,16.48928 L 41.519524,16.48928 L 41.740494,12.566722 L 42.141383,14.651431 L 46.834848,14.739819 L 47.27679,12.618499 L 47.633485,16.525892 L 49.004805,16.515169 C 49.004805,16.515169 48.459793,12.541135 48.460611,11.932838 C 48.46165,11.182286 48.302071,10.374237 47.302028,10.390484 C 47.257026,10.391199 42.267042,10.327905 41.468397,10.368387 C 40.426259,10.42121 40.428191,11.006963 40.270062,11.958727 C 40.088372,13.0523 39.799092,16.48928 39.799092,16.48928 z"/><path id="path12708" fill="#000" fill-opacity="1" fill-rule="evenodd" stroke="#000" stroke-dasharray="none" stroke-linecap="butt" stroke-linejoin="miter" stroke-miterlimit="4" stroke-opacity="1" stroke-width=".5" d="M 42.24963,21.903462 L 42.161242,14.655618 L 46.80163,14.699812 L 46.80163,21.815074 L 45.21064,21.859268 L 45.21064,16.953714 L 43.796426,16.953713 L 43.752231,21.859268 L 42.24963,21.903462 z"/></g><g id="g12544" transform="translate(592.85229,746.7986)"><path id="path12546" fill="url(#linearGradient12552)" fill-opacity="1" fill-rule="evenodd" stroke="#107470" stroke-dasharray="none" stroke-dashoffset="0" stroke-linecap="butt" stroke-linejoin="bevel" stroke-miterlimit="4" stroke-opacity="1" stroke-width=".494" d="M 44.588388,5.1114434 C 43.382063,5.1114434 42.326801,6.0729072 42.398056,7.2468768 C 42.486502,8.7040786 43.586575,8.2006725 43.704622,10.265607 C 44.154054,10.283919 45.38309,10.336595 45.339401,10.308749 C 45.467814,8.1773981 46.758816,8.76817 46.77872,7.2468768 C 46.794107,6.0708326 45.794714,5.1114434 44.588388,5.1114434 z"/><path id="path12548" fill="url(#linearGradient12554)" fill-opacity="1" fill-rule="evenodd" stroke="#107470" stroke-dasharray="none" stroke-linecap="butt" stroke-linejoin="miter" stroke-miterlimit="4" stroke-opacity="1" stroke-width=".5" d="M 39.799092,16.48928 L 41.519524,16.48928 L 41.740494,12.566722 L 42.141383,14.651431 L 46.834848,14.739819 L 47.27679,12.618499 L 47.633485,16.525892 L 49.004805,16.515169 C 49.004805,16.515169 48.459793,12.541135 48.460611,11.932838 C 48.46165,11.182286 48.302071,10.374237 47.302028,10.390484 C 47.257026,10.391199 42.267042,10.327905 41.468397,10.368387 C 40.426259,10.42121 40.428191,11.006963 40.270062,11.958727 C 40.088372,13.0523 39.799092,16.48928 39.799092,16.48928 z"/><path id="path12550" fill="url(#linearGradient12556)" fill-opacity="1" fill-rule="evenodd" stroke="#107470" stroke-dasharray="none" stroke-linecap="butt" stroke-linejoin="miter" stroke-miterlimit="4" stroke-opacity="1" stroke-width=".5" d="M 42.24963,21.903462 L 42.161242,14.655618 L 46.80163,14.699812 L 46.80163,21.815074 L 45.21064,21.859268 L 45.21064,16.953714 L 43.796426,16.953713 L 43.752231,21.859268 L 42.24963,21.903462 z"/></g><g id="g12710" fill="#000" fill-opacity="1" stroke="#000" stroke-opacity="1" transform="translate(586.97264,748.18116)"><path id="path12712" fill="#000" fill-opacity="1" fill-rule="evenodd" stroke="#000" stroke-dasharray="none" stroke-dashoffset="0" stroke-linecap="butt" stroke-linejoin="bevel" stroke-miterlimit="4" stroke-opacity="1" stroke-width=".494" d="M 44.588388,5.1114434 C 43.382063,5.1114434 42.326801,6.0729072 42.398056,7.2468768 C 42.486502,8.7040786 43.586575,8.2006725 43.704622,10.265607 C 44.154054,10.283919 45.38309,10.336595 45.339401,10.308749 C 45.467814,8.1773981 46.758816,8.76817 46.77872,7.2468768 C 46.794107,6.0708326 45.794714,5.1114434 44.588388,5.1114434 z"/><path id="path12714" fill="#000" fill-opacity="1" fill-rule="evenodd" stroke="#000" stroke-dasharray="none" stroke-linecap="butt" stroke-linejoin="miter" stroke-miterlimit="4" stroke-opacity="1" stroke-width=".5" d="M 39.799092,16.48928 L 41.519524,16.48928 L 41.740494,12.566722 L 42.141383,14.651431 L 46.834848,14.739819 L 47.27679,12.618499 L 47.633485,16.525892 L 49.004805,16.515169 C 49.004805,16.515169 48.459793,12.541135 48.460611,11.932838 C 48.46165,11.182286 48.302071,10.374237 47.302028,10.390484 C 47.257026,10.391199 42.267042,10.327905 41.468397,10.368387 C 40.426259,10.42121 40.428191,11.006963 40.270062,11.958727 C 40.088372,13.0523 39.799092,16.48928 39.799092,16.48928 z"/><path id="path12716" fill="#000" fill-opacity="1" fill-rule="evenodd" stroke="#000" stroke-dasharray="none" stroke-linecap="butt" stroke-linejoin="miter" stroke-miterlimit="4" stroke-opacity="1" stroke-width=".5" d="M 42.24963,21.903462 L 42.161242,14.655618 L 46.80163,14.699812 L 46.80163,21.815074 L 45.21064,21.859268 L 45.21064,16.953714 L 43.796426,16.953713 L 43.752231,21.859268 L 42.24963,21.903462 z"/></g><g id="g12530" transform="translate(586.70929,747.77088)"><path id="path12532" fill="url(#linearGradient12538)" fill-opacity="1" fill-rule="evenodd" stroke="#107470" stroke-dasharray="none" stroke-dashoffset="0" stroke-linecap="butt" stroke-linejoin="bevel" stroke-miterlimit="4" stroke-opacity="1" stroke-width=".494" d="M 44.588388,5.1114434 C 43.382063,5.1114434 42.326801,6.0729072 42.398056,7.2468768 C 42.486502,8.7040786 43.586575,8.2006725 43.704622,10.265607 C 44.154054,10.283919 45.38309,10.336595 45.339401,10.308749 C 45.467814,8.1773981 46.758816,8.76817 46.77872,7.2468768 C 46.794107,6.0708326 45.794714,5.1114434 44.588388,5.1114434 z"/><path id="path12534" fill="url(#linearGradient12540)" fill-opacity="1" fill-rule="evenodd" stroke="#107470" stroke-dasharray="none" stroke-linecap="butt" stroke-linejoin="miter" stroke-miterlimit="4" stroke-opacity="1" stroke-width=".5" d="M 39.799092,16.48928 L 41.519524,16.48928 L 41.740494,12.566722 L 42.141383,14.651431 L 46.834848,14.739819 L 47.27679,12.618499 L 47.633485,16.525892 L 49.004805,16.515169 C 49.004805,16.515169 48.459793,12.541135 48.460611,11.932838 C 48.46165,11.182286 48.302071,10.374237 47.302028,10.390484 C 47.257026,10.391199 42.267042,10.327905 41.468397,10.368387 C 40.426259,10.42121 40.428191,11.006963 40.270062,11.958727 C 40.088372,13.0523 39.799092,16.48928 39.799092,16.48928 z"/><path id="path12536" fill="url(#linearGradient12542)" fill-opacity="1" fill-rule="evenodd" stroke="#107470" stroke-dasharray="none" stroke-linecap="butt" stroke-linejoin="miter" stroke-miterlimit="4" stroke-opacity="1" stroke-width=".5" d="M 42.24963,21.903462 L 42.161242,14.655618 L 46.80163,14.699812 L 46.80163,21.815074 L 45.21064,21.859268 L 45.21064,16.953714 L 43.796426,16.953713 L 43.752231,21.859268 L 42.24963,21.903462 z"/></g><g id="g12718" fill="#000" fill-opacity="1" stroke="#000" stroke-opacity="1" transform="translate(580.99323,749.11154)"><path id="path12720" fill="#000" fill-opacity="1" fill-rule="evenodd" stroke="#000" stroke-dasharray="none" stroke-dashoffset="0" stroke-linecap="butt" stroke-linejoin="bevel" stroke-miterlimit="4" stroke-opacity="1" stroke-width=".494" d="M 44.588388,5.1114434 C 43.382063,5.1114434 42.326801,6.0729072 42.398056,7.2468768 C 42.486502,8.7040786 43.586575,8.2006725 43.704622,10.265607 C 44.154054,10.283919 45.38309,10.336595 45.339401,10.308749 C 45.467814,8.1773981 46.758816,8.76817 46.77872,7.2468768 C 46.794107,6.0708326 45.794714,5.1114434 44.588388,5.1114434 z"/><path id="path12722" fill="#000" fill-opacity="1" fill-rule="evenodd" stroke="#000" stroke-dasharray="none" stroke-linecap="butt" stroke-linejoin="miter" stroke-miterlimit="4" stroke-opacity="1" stroke-width=".5" d="M 39.799092,16.48928 L 41.519524,16.48928 L 41.740494,12.566722 L 42.141383,14.651431 L 46.834848,14.739819 L 47.27679,12.618499 L 47.633485,16.525892 L 49.004805,16.515169 C 49.004805,16.515169 48.459793,12.541135 48.460611,11.932838 C 48.46165,11.182286 48.302071,10.374237 47.302028,10.390484 C 47.257026,10.391199 42.267042,10.327905 41.468397,10.368387 C 40.426259,10.42121 40.428191,11.006963 40.270062,11.958727 C 40.088372,13.0523 39.799092,16.48928 39.799092,16.48928 z"/><path id="path12724" fill="#000" fill-opacity="1" fill-rule="evenodd" stroke="#000" stroke-dasharray="none" stroke-linecap="butt" stroke-linejoin="miter" stroke-miterlimit="4" stroke-opacity="1" stroke-width=".5" d="M 42.24963,21.903462 L 42.161242,14.655618 L 46.80163,14.699812 L 46.80163,21.815074 L 45.21064,21.859268 L 45.21064,16.953714 L 43.796426,16.953713 L 43.752231,21.859268 L 42.24963,21.903462 z"/></g><g id="g12525" transform="translate(580.72989,748.70125)"><path id="path8599" fill="url(#linearGradient10575)" fill-opacity="1" fill-rule="evenodd" stroke="#107470" stroke-dasharray="none" stroke-dashoffset="0" stroke-linecap="butt" stroke-linejoin="bevel" stroke-miterlimit="4" stroke-opacity="1" stroke-width=".494" d="M 44.588388,5.1114434 C 43.382063,5.1114434 42.326801,6.0729072 42.398056,7.2468768 C 42.486502,8.7040786 43.586575,8.2006725 43.704622,10.265607 C 44.154054,10.283919 45.38309,10.336595 45.339401,10.308749 C 45.467814,8.1773981 46.758816,8.76817 46.77872,7.2468768 C 46.794107,6.0708326 45.794714,5.1114434 44.588388,5.1114434 z"/><path id="path9592" fill="url(#linearGradient9594)" fill-opacity="1" fill-rule="evenodd" stroke="#107470" stroke-dasharray="none" stroke-linecap="butt" stroke-linejoin="miter" stroke-miterlimit="4" stroke-opacity="1" stroke-width=".5" d="M 39.799092,16.48928 L 41.519524,16.48928 L 41.740494,12.566722 L 42.141383,14.651431 L 46.834848,14.739819 L 47.27679,12.618499 L 47.633485,16.525892 L 49.004805,16.515169 C 49.004805,16.515169 48.459793,12.541135 48.460611,11.932838 C 48.46165,11.182286 48.302071,10.374237 47.302028,10.390484 C 47.257026,10.391199 42.267042,10.327905 41.468397,10.368387 C 40.426259,10.42121 40.428191,11.006963 40.270062,11.958727 C 40.088372,13.0523 39.799092,16.48928 39.799092,16.48928 z"/><path id="path10577" fill="url(#linearGradient12523)" fill-opacity="1" fill-rule="evenodd" stroke="#107470" stroke-dasharray="none" stroke-linecap="butt" stroke-linejoin="miter" stroke-miterlimit="4" stroke-opacity="1" stroke-width=".5" d="M 42.24963,21.903462 L 42.161242,14.655618 L 46.80163,14.699812 L 46.80163,21.815074 L 45.21064,21.859268 L 45.21064,16.953714 L 43.796426,16.953713 L 43.752231,21.859268 L 42.24963,21.903462 z"/></g></g></svg>