<svg xmlns="http://www.w3.org/2000/svg" xmlns:cc="http://web.resource.org/cc/" xmlns:svg="http://www.w3.org/2000/svg" xmlns:xlink="http://www.w3.org/1999/xlink" id="svg11399" width="29.01" height="18.712" version="1.0"><defs id="defs11401"><linearGradient id="linearGradient14809" x1="9.753" x2="23.127" y1="36.885" y2="36.885" gradientTransform="translate(174.16383,469.95546)" gradientUnits="userSpaceOnUse" xlink:href="#linearGradient8263"/><linearGradient id="linearGradient12598" x1="41.955" x2="47.096" y1="18.545" y2="18.545" gradientUnits="userSpaceOnUse" xlink:href="#linearGradient8263"/><linearGradient id="linearGradient12596" x1="79.006" x2="89.964" y1="11.881" y2="11.881" gradientTransform="translate(-40.003562,1.1265562)" gradientUnits="userSpaceOnUse" xlink:href="#linearGradient8263"/><linearGradient id="linearGradient12594" x1="42.15" x2="47.027" y1="7.78" y2="7.78" gradientTransform="matrix(1.0012945,0,0,0.9761982,-5.7721371e-2,0.1188959)" gradientUnits="userSpaceOnUse" xlink:href="#linearGradient8263"/><linearGradient id="linearGradient11397" x1="63.727" x2="67.182" y1="36.273" y2="36.273" gradientUnits="userSpaceOnUse" xlink:href="#linearGradient8263"/><linearGradient id="linearGradient11395" x1="57.182" x2="66.818" y1="28.864" y2="28.864" gradientUnits="userSpaceOnUse" xlink:href="#linearGradient8263"/><linearGradient id="linearGradient8263"><stop id="stop8265" offset="0" stop-color="#a4faf7" stop-opacity="1"/><stop id="stop8267" offset="1" stop-color="#0a827d" stop-opacity="1"/></linearGradient><linearGradient id="linearGradient11393" x1="56.818" x2="63.818" y1="37.545" y2="37.545" gradientUnits="userSpaceOnUse" xlink:href="#linearGradient8263"/></defs><metadata id="metadata11404"/><g id="layer1" transform="translate(-176.67081,-497.22871)"><g id="g15794" fill="#000" fill-opacity="1" stroke="#000" stroke-opacity="1" transform="translate(137.45167,493.68543)"><path id="path15796" fill="#000" fill-opacity="1" fill-rule="evenodd" stroke="#000" stroke-dasharray="none" stroke-dashoffset="0" stroke-linecap="butt" stroke-linejoin="bevel" stroke-miterlimit="4" stroke-opacity="1" stroke-width=".494" d="M 44.588388,5.1114434 C 43.382063,5.1114434 42.326801,6.0729072 42.398056,7.2468768 C 42.486502,8.7040786 43.586575,8.2006725 43.704622,10.265607 C 44.154054,10.283919 45.38309,10.336595 45.339401,10.308749 C 45.467814,8.1773981 46.758816,8.76817 46.77872,7.2468768 C 46.794107,6.0708326 45.794714,5.1114434 44.588388,5.1114434 z"/><path id="path15798" fill="#000" fill-opacity="1" fill-rule="evenodd" stroke="#000" stroke-dasharray="none" stroke-linecap="butt" stroke-linejoin="miter" stroke-miterlimit="4" stroke-opacity="1" stroke-width=".5" d="M 39.799092,16.48928 L 41.519524,16.48928 L 41.740494,12.566722 L 42.141383,14.651431 L 46.834848,14.739819 L 47.27679,12.618499 L 47.633485,16.525892 L 49.004805,16.515169 C 49.004805,16.515169 48.459793,12.541135 48.460611,11.932838 C 48.46165,11.182286 48.302071,10.374237 47.302028,10.390484 C 47.257026,10.391199 42.267042,10.327905 41.468397,10.368387 C 40.426259,10.42121 40.428191,11.006963 40.270062,11.958727 C 40.088372,13.0523 39.799092,16.48928 39.799092,16.48928 z"/><path id="path15800" fill="#000" fill-opacity="1" fill-rule="evenodd" stroke="#000" stroke-dasharray="none" stroke-linecap="butt" stroke-linejoin="miter" stroke-miterlimit="4" stroke-opacity="1" stroke-width=".5" d="M 42.24963,21.903462 L 42.161242,14.655618 L 46.80163,14.699812 L 46.80163,21.815074 L 45.21064,21.859268 L 45.21064,16.953714 L 43.796426,16.953713 L 43.752231,21.859268 L 42.24963,21.903462 z"/></g><path id="path15802" fill="#000" fill-opacity="1" fill-rule="evenodd" stroke="#000" stroke-dasharray="none" stroke-linecap="butt" stroke-linejoin="miter" stroke-miterlimit="4" stroke-opacity="1" stroke-width=".5" d="M 184.59366,503.04005 L 189.45502,511.87888 L 192.10667,511.96727 L 196.96803,502.77488 L 193.34411,502.86327 L 191.04601,507.1943 L 188.57113,502.95166 L 184.59366,503.04005 z"/><path id="path13832" fill="url(#linearGradient14809)" fill-opacity="1" fill-rule="evenodd" stroke="#107470" stroke-dasharray="none" stroke-linecap="butt" stroke-linejoin="miter" stroke-miterlimit="4" stroke-opacity="1" stroke-width=".5" d="M 184.41688,502.50972 L 189.27824,511.34855 L 191.92989,511.43694 L 196.79125,502.24455 L 193.16733,502.33294 L 190.86923,506.66397 L 188.39436,502.42133 L 184.41688,502.50972 z"/><g id="g14811" fill="#000" fill-opacity="1" stroke="#000" stroke-opacity="1" transform="translate(137.45167,493.68543)"><path id="path14813" fill="#000" fill-opacity="1" fill-rule="evenodd" stroke="#000" stroke-dasharray="none" stroke-dashoffset="0" stroke-linecap="butt" stroke-linejoin="bevel" stroke-miterlimit="4" stroke-opacity="1" stroke-width=".494" d="M 44.588388,5.1114434 C 43.382063,5.1114434 42.326801,6.0729072 42.398056,7.2468768 C 42.486502,8.7040786 43.586575,8.2006725 43.704622,10.265607 C 44.154054,10.283919 45.38309,10.336595 45.339401,10.308749 C 45.467814,8.1773981 46.758816,8.76817 46.77872,7.2468768 C 46.794107,6.0708326 45.794714,5.1114434 44.588388,5.1114434 z"/><path id="path14815" fill="#000" fill-opacity="1" fill-rule="evenodd" stroke="#000" stroke-dasharray="none" stroke-linecap="butt" stroke-linejoin="miter" stroke-miterlimit="4" stroke-opacity="1" stroke-width=".5" d="M 39.799092,16.48928 L 41.519524,16.48928 L 41.740494,12.566722 L 42.141383,14.651431 L 46.834848,14.739819 L 47.27679,12.618499 L 47.633485,16.525892 L 49.004805,16.515169 C 49.004805,16.515169 48.459793,12.541135 48.460611,11.932838 C 48.46165,11.182286 48.302071,10.374237 47.302028,10.390484 C 47.257026,10.391199 42.267042,10.327905 41.468397,10.368387 C 40.426259,10.42121 40.428191,11.006963 40.270062,11.958727 C 40.088372,13.0523 39.799092,16.48928 39.799092,16.48928 z"/><path id="path14817" fill="#000" fill-opacity="1" fill-rule="evenodd" stroke="#000" stroke-dasharray="none" stroke-linecap="butt" stroke-linejoin="miter" stroke-miterlimit="4" stroke-opacity="1" stroke-width=".5" d="M 42.24963,21.903462 L 42.161242,14.655618 L 46.80163,14.699812 L 46.80163,21.815074 L 45.21064,21.859268 L 45.21064,16.953714 L 43.796426,16.953713 L 43.752231,21.859268 L 42.24963,21.903462 z"/></g><g id="g12586" transform="translate(137.12172,493.40998)"><path id="path12588" fill="url(#linearGradient12594)" fill-opacity="1" fill-rule="evenodd" stroke="#107470" stroke-dasharray="none" stroke-dashoffset="0" stroke-linecap="butt" stroke-linejoin="bevel" stroke-miterlimit="4" stroke-opacity="1" stroke-width=".494" d="M 44.588388,5.1114434 C 43.382063,5.1114434 42.326801,6.0729072 42.398056,7.2468768 C 42.486502,8.7040786 43.586575,8.2006725 43.704622,10.265607 C 44.154054,10.283919 45.38309,10.336595 45.339401,10.308749 C 45.467814,8.1773981 46.758816,8.76817 46.77872,7.2468768 C 46.794107,6.0708326 45.794714,5.1114434 44.588388,5.1114434 z"/><path id="path12590" fill="url(#linearGradient12596)" fill-opacity="1" fill-rule="evenodd" stroke="#107470" stroke-dasharray="none" stroke-linecap="butt" stroke-linejoin="miter" stroke-miterlimit="4" stroke-opacity="1" stroke-width=".5" d="M 39.799092,16.48928 L 41.519524,16.48928 L 41.740494,12.566722 L 42.141383,14.651431 L 46.834848,14.739819 L 47.27679,12.618499 L 47.633485,16.525892 L 49.004805,16.515169 C 49.004805,16.515169 48.459793,12.541135 48.460611,11.932838 C 48.46165,11.182286 48.302071,10.374237 47.302028,10.390484 C 47.257026,10.391199 42.267042,10.327905 41.468397,10.368387 C 40.426259,10.42121 40.428191,11.006963 40.270062,11.958727 C 40.088372,13.0523 39.799092,16.48928 39.799092,16.48928 z"/><path id="path12592" fill="url(#linearGradient12598)" fill-opacity="1" fill-rule="evenodd" stroke="#107470" stroke-dasharray="none" stroke-linecap="butt" stroke-linejoin="miter" stroke-miterlimit="4" stroke-opacity="1" stroke-width=".5" d="M 42.24963,21.903462 L 42.161242,14.655618 L 46.80163,14.699812 L 46.80163,21.815074 L 45.21064,21.859268 L 45.21064,16.953714 L 43.796426,16.953713 L 43.752231,21.859268 L 42.24963,21.903462 z"/></g><g id="g11377" transform="translate(137.83622,470.1242)"><path id="path11379" fill="url(#linearGradient11393)" fill-opacity="1" fill-rule="evenodd" stroke="none" stroke-linecap="butt" stroke-linejoin="miter" stroke-opacity="1" stroke-width="1" d="M 56.818182,30.272727 L 56.818182,44.909091 L 63.818182,44.909091 L 63.818182,30.181818 L 56.818182,30.272727 z"/><path id="path11381" fill="url(#linearGradient11395)" fill-opacity="1" fill-rule="evenodd" stroke="none" stroke-linecap="butt" stroke-linejoin="miter" stroke-opacity="1" stroke-width="1" d="M 63.663936,30.283756 L 66.818182,27.636363 L 60.818182,27.636363 L 56.828265,30.294786 L 63.663936,30.283756 z"/><path id="path11383" fill="url(#linearGradient11397)" fill-opacity="1" fill-rule="evenodd" stroke="none" stroke-linecap="butt" stroke-linejoin="miter" stroke-opacity="1" stroke-width="1" d="M 66.796123,27.630848 L 66.828265,40.717189 L 63.780526,44.818182 L 63.662991,30.235071 L 66.796123,27.630848 z"/><path id="path11385" fill="none" fill-opacity="1" fill-rule="evenodd" stroke="#107470" stroke-linecap="butt" stroke-linejoin="miter" stroke-opacity="1" stroke-width="1" d="M 56.889955,44.896484 L 63.703893,44.960767 L 66.918015,40.653844 L 66.78945,27.604509 L 60.811183,27.63665 L 56.793531,30.27223 L 56.889955,44.896484 z"/><path id="path11387" fill="none" fill-rule="evenodd" stroke="#107470" stroke-linecap="butt" stroke-linejoin="miter" stroke-opacity="1" stroke-width="1" d="M 58.400592,32.361409 L 62.193256,32.361409 M 58.400592,34.2256 L 62.225396,34.217565"/><path id="path11389" fill="none" fill-opacity="1" fill-rule="evenodd" stroke="#000" stroke-linecap="square" stroke-linejoin="miter" stroke-opacity="1" stroke-width="1" d="M 57.31697,45.252332 L 64.130908,45.316615 L 67.34503,41.009692 L 67.216465,27.960357"/><path id="path11391" fill="none" fill-opacity="1" fill-rule="evenodd" stroke="#107470" stroke-linecap="butt" stroke-linejoin="miter" stroke-opacity="1" stroke-width="1" d="M 56.889955,44.896484 L 63.703893,44.960767 L 66.918015,40.653844 L 66.78945,27.604509 L 60.811183,27.63665 L 56.793531,30.27223 L 56.889955,44.896484 z"/></g></g></svg>