<svg xmlns="http://www.w3.org/2000/svg" xmlns:cc="http://web.resource.org/cc/" xmlns:svg="http://www.w3.org/2000/svg" xmlns:xlink="http://www.w3.org/1999/xlink" id="svg3410" width="10.958" height="10.675" version="1.0"><defs id="defs3412"><linearGradient id="linearGradient9590" x1="79.006" x2="89.964" y1="11.881" y2="11.881" gradientTransform="translate(464.08617,748.6304)" gradientUnits="userSpaceOnUse" xlink:href="#linearGradient8263"/><linearGradient id="linearGradient8263"><stop id="stop8265" offset="0" stop-color="#a4faf7" stop-opacity="1"/><stop id="stop8267" offset="1" stop-color="#0a827d" stop-opacity="1"/></linearGradient><linearGradient id="linearGradient9588" x1="81.774" x2="86.871" y1="6.038" y2="6.038" gradientUnits="userSpaceOnUse" xlink:href="#linearGradient8263"/></defs><metadata id="metadata3415"/><g id="layer1" transform="translate(-543.09251,-752.73878)"><path id="path7620" fill="url(#linearGradient9590)" fill-opacity="1" fill-rule="evenodd" stroke="#107470" stroke-dasharray="none" stroke-linecap="butt" stroke-linejoin="miter" stroke-miterlimit="4" stroke-opacity="1" stroke-width=".5" d="M 543.37052,763.15344 L 545.65345,763.15344 L 545.58023,759.88307 L 545.66862,762.09278 L 551.60136,762.06689 L 551.67902,760.05984 L 551.71564,763.16416 L 553.71196,763.15344 C 553.71196,763.15344 553.79953,759.60748 553.80035,758.99918 C 553.80138,758.24863 552.39181,757.87808 551.39176,757.89433 C 551.34676,757.89505 546.35678,757.83175 545.55813,757.87223 C 544.51599,757.92506 543.39293,758.19831 543.3598,759.02507 C 543.31541,760.13275 543.37052,763.15344 543.37052,763.15344 z"/><path id="path7626" fill="url(#linearGradient9588)" fill-opacity="1" fill-rule="evenodd" stroke="#107470" stroke-dasharray="none" stroke-dashoffset="0" stroke-linecap="butt" stroke-linejoin="bevel" stroke-miterlimit="4" stroke-opacity="1" stroke-width=".5" d="M 86.620584 6.0377536 A 2.2980971 2.2980971 0 1 1 82.02439,6.0377536 A 2.2980971 2.2980971 0 1 1 86.620584 6.0377536 z" transform="translate(464.17456,749.24912)"/></g></svg>