<svg xmlns="http://www.w3.org/2000/svg" xmlns:cc="http://web.resource.org/cc/" xmlns:svg="http://www.w3.org/2000/svg" xmlns:xlink="http://www.w3.org/1999/xlink" id="svg14626" width="18.52" height="21.06" version="1.0"><defs id="defs14628"><radialGradient id="radialGradient7597" cx="164.594" cy="36.594" r="7.969" fx="164.594" fy="36.594" gradientTransform="matrix(1.1140878,0,0,1.2801087,602.67777,319.48636)" gradientUnits="userSpaceOnUse" xlink:href="#linearGradient8263"/><linearGradient id="linearGradient8263"><stop id="stop8265" offset="0" stop-color="#a4faf7" stop-opacity="1"/><stop id="stop8267" offset="1" stop-color="#0a827d" stop-opacity="1"/></linearGradient><linearGradient id="linearGradient7595" x1="156.625" x2="172.563" y1="36.594" y2="36.594" gradientTransform="matrix(1.1140878,0,0,1.1140878,602.67777,325.56169)" gradientUnits="userSpaceOnUse" xlink:href="#linearGradient8263"/></defs><metadata id="metadata14631"/><g id="layer1" transform="translate(-776.81899,-356.29036)"><path id="path7591" fill="#000" fill-opacity="1" fill-rule="evenodd" stroke="#000" stroke-dasharray="none" stroke-linecap="butt" stroke-linejoin="miter" stroke-miterlimit="4" stroke-opacity="1" stroke-width=".557" d="M 778.32067,368.7674 L 786.88522,376.84454 C 786.88522,376.84454 788.62598,371.34373 790.64527,367.37479 C 792.66455,363.40586 794.96236,360.96879 794.96236,360.96879 L 791.68972,357.55689 C 791.68972,357.55689 788.85228,360.15063 787.16374,363.26659 C 785.47521,366.38256 784.93557,370.02075 784.93557,370.02075 L 778.32067,368.7674 z"/><path id="path7593" fill="url(#linearGradient7595)" fill-opacity="1" fill-rule="evenodd" stroke="url(#radialGradient7597)" stroke-dasharray="none" stroke-linecap="butt" stroke-linejoin="miter" stroke-miterlimit="4" stroke-opacity="1" stroke-width=".557" d="M 777.72881,367.89702 L 786.29336,375.97416 C 786.29336,375.97416 788.03412,370.47335 790.05341,366.50441 C 792.07269,362.53547 794.3705,360.09841 794.3705,360.09841 L 791.09787,356.68651 C 791.09787,356.68651 788.26042,359.28025 786.57188,362.39621 C 784.88335,365.51218 784.34371,369.15037 784.34371,369.15037 L 777.72881,367.89702 z"/></g></svg>